<svg width="685" height="148" viewBox="0 0 685 148" fill="none" xmlns="http://www.w3.org/2000/svg">
<path fill-rule="evenodd" clip-rule="evenodd" d="M488.005 147.725C481.869 147.867 472.642 146.737 464.441 142.327C455.512 137.525 447.439 128.441 447.439 114.131L447.439 0.00119019L471.578 0.00118807L471.578 114.131C471.578 116.299 472.112 117.505 472.626 118.272C473.208 119.142 474.2 120.076 475.835 120.955C479.363 122.853 484.208 123.578 487.522 123.487L487.688 123.482L547.632 123.482L547.632 147.725L488.005 147.725Z" fill="#6A25BA"/>
<path fill-rule="evenodd" clip-rule="evenodd" d="M547.632 0.00117377L547.632 147.736L521.266 147.736L521.266 0.00117493L547.632 0.00117377Z" fill="white"/>
<path d="M111.629 142.328C103.428 146.738 96.5009 147.737 88.0636 147.737L76.0689 147.726L76.0689 123.488L88.3827 123.483L88.5481 123.488C91.8623 123.579 96.707 122.854 100.236 120.956C101.87 120.077 102.862 119.143 103.444 118.273C103.958 117.506 104.493 116.3 104.493 114.132L104.493 0.00219515L128.631 0.00219727L128.631 114.132C128.631 128.442 120.559 137.526 111.629 142.328Z" fill="#6CCD86"/>
<path d="M69.9189 49.1176C72.1701 53.5033 74.1873 58.0032 75.983 62.5276C89.1748 95.7662 88.0421 122.868 88.0421 147.737L64.0714 147.737C64.0714 135.607 59.5576 81.5351 48.6386 60.2629C37.6979 38.9484 21.5145 24.2153 -0.000978796 24.2153L-0.000977738 0.00213238C34.6212 0.00213389 57.2042 24.3471 69.9189 49.1176Z" fill="white"/>
<path fill-rule="evenodd" clip-rule="evenodd" d="M174.417 9.74647C181.785 2.45761 191.752 0 201.8 0H261.057V26.3813H201.8C195.667 26.3813 193.587 27.8809 192.955 28.5064C192.351 29.104 190.892 31.0527 190.892 36.9338V110.801C190.892 116.682 192.352 118.672 192.963 119.284C193.573 119.894 195.556 121.354 201.421 121.354H265.772C265.772 121.354 265.773 121.354 265.773 134.545C265.773 147.735 265.772 147.735 265.772 147.735H201.421C191.484 147.735 181.61 145.237 174.314 137.933C167.02 130.631 164.525 120.749 164.525 110.801V36.9338C164.525 26.9861 167.021 17.0632 174.417 9.74647Z" fill="#FE6F61"/>
<path fill-rule="evenodd" clip-rule="evenodd" d="M164.526 61.6349L249.873 61.6349L249.873 86.1006L164.526 86.1006L164.526 61.6349Z" fill="white"/>
<mask id="mask0_591_3790" style="mask-type:alpha" maskUnits="userSpaceOnUse" x="164" y="0" width="102" height="148">
<path fill-rule="evenodd" clip-rule="evenodd" d="M174.417 9.74647C181.785 2.45761 191.752 0 201.8 0H261.057V26.3813H201.8C195.667 26.3813 193.587 27.8809 192.955 28.5064C192.351 29.104 190.892 31.0527 190.892 36.9338V110.801C190.892 116.682 192.352 118.672 192.963 119.284C193.573 119.894 195.556 121.354 201.421 121.354H265.772C265.772 121.354 265.773 121.354 265.773 134.545C265.773 147.735 265.772 147.735 265.772 147.735H201.421C191.484 147.735 181.61 145.237 174.314 137.933C167.02 130.631 164.525 120.749 164.525 110.801V36.9338C164.525 26.9861 167.021 17.0632 174.417 9.74647Z" fill="url(#paint0_linear_591_3790)"/>
</mask>
<g mask="url(#mask0_591_3790)">
</g>
<path fill-rule="evenodd" clip-rule="evenodd" d="M593.644 9.74793C601.012 2.45907 610.978 0.00146484 621.026 0.00146484H680.284V26.3827H621.026C614.893 26.3827 612.814 27.8823 612.182 28.5079C611.578 29.1055 610.118 31.0542 610.118 36.9353V110.803C610.118 116.684 611.579 118.674 612.19 119.286C612.8 119.896 614.782 121.355 620.648 121.355H684.999C684.999 121.355 684.999 121.355 684.999 134.546C684.999 147.737 684.999 147.737 684.999 147.737H620.648C610.711 147.737 600.837 145.239 593.541 137.935C586.246 130.632 583.752 120.75 583.752 110.803V36.9353C583.752 26.9875 586.248 17.0647 593.644 9.74793Z" fill="#FE6F61"/>
<path fill-rule="evenodd" clip-rule="evenodd" d="M583.751 61.6363L669.098 61.6364L669.098 86.1021L583.751 86.102L583.751 61.6363Z" fill="white"/>
<path fill-rule="evenodd" clip-rule="evenodd" d="M384.953 147.736V0.000976562L411.32 0.000976563V147.736H384.953Z" fill="white"/>
<path fill-rule="evenodd" clip-rule="evenodd" d="M329.718 26.6459L301.107 26.6459L301.107 0.264656L329.718 0.264648C334.557 0.264649 340.074 1.21424 345.496 4.22119C350.949 7.24532 355.497 11.9023 359.049 18.0603C365.87 29.8882 369.397 47.8897 369.397 74.1321C369.397 98.9313 372.898 111.268 376.215 117.018C377.732 119.649 379.031 120.591 379.712 120.969C380.424 121.364 381.329 121.619 382.709 121.619H411.319V148H382.709C377.869 148 372.353 147.05 366.93 144.043C361.477 141.019 356.93 136.362 353.378 130.204C346.556 118.376 343.03 100.375 343.03 74.1321C343.03 49.333 339.528 36.9962 336.212 31.246C334.694 28.6149 333.396 27.673 332.715 27.2955C332.003 26.9007 331.098 26.6459 329.718 26.6459Z" fill="#6CCD86"/>
<path fill-rule="evenodd" clip-rule="evenodd" d="M300.844 147.736V0.000976562L327.21 0.000976563V147.736H300.844Z" fill="white"/>
<defs>
<linearGradient id="paint0_linear_591_3790" x1="248.503" y1="68.9871" x2="177.709" y2="68.9871" gradientUnits="userSpaceOnUse">
<stop stop-color="#6CCD86"/>
<stop offset="1" stop-color="#366743" stop-opacity="0"/>
</linearGradient>
</defs>
</svg>
