<svg width="288" height="63" viewBox="0 0 288 63" fill="none" xmlns="http://www.w3.org/2000/svg">
<path fill-rule="evenodd" clip-rule="evenodd" d="M205.178 62.1098C202.599 62.1698 198.719 61.6945 195.271 59.8403C191.517 57.8216 188.123 54.0021 188.123 47.9857L188.123 0.00100327L198.272 0.00100238L198.272 47.9857C198.272 48.8971 198.496 49.4041 198.712 49.7268C198.957 50.0924 199.374 50.4853 200.062 50.8548C201.545 51.6526 203.582 51.9577 204.975 51.9194L205.045 51.9174L230.248 51.9174L230.248 62.1098L205.178 62.1098Z" fill="#FE6F61"/>
<path fill-rule="evenodd" clip-rule="evenodd" d="M230.248 0.00100278L230.248 62.1147L219.162 62.1147L219.162 0.00100327L230.248 0.00100278Z" fill="white"/>
<path d="M46.9339 59.8399C43.4858 61.694 40.5733 62.1143 37.0259 62.1143L31.9829 62.1094L31.9829 51.9189L37.1601 51.917L37.2296 51.9189C38.6231 51.9573 40.66 51.6521 42.1436 50.8544C42.8307 50.4849 43.248 50.092 43.4927 49.7263C43.7086 49.4037 43.9333 48.8966 43.9333 47.9853L43.9334 0.00053317L54.082 0.000534058L54.082 47.9853C54.082 54.0016 50.6882 57.8211 46.9339 59.8399Z" fill="#6CCD86"/>
<path d="M29.3974 20.6506C30.3439 22.4945 31.192 24.3865 31.947 26.2887C37.4933 40.2635 37.0171 51.6584 37.0171 62.1143L26.9389 62.1143C26.9389 57.0144 25.0411 34.2802 20.4503 25.3365C15.8504 16.3751 9.04627 10.1807 0.000311259 10.1807L0.000311704 0.00050955C14.5568 0.000510187 24.0517 10.2361 29.3974 20.6506Z" fill="white"/>
<path fill-rule="evenodd" clip-rule="evenodd" d="M73.3318 4.0978C76.4296 1.03328 80.6198 0 84.8444 0H109.759V11.0917H84.8444C82.2658 11.0917 81.3917 11.7222 81.1258 11.9852C80.8718 12.2365 80.2584 13.0558 80.2584 15.5284V46.5853C80.2584 49.058 80.8724 49.8946 81.1293 50.1518C81.3857 50.4084 82.2192 51.022 84.6854 51.022H111.741C111.741 51.022 111.741 51.022 111.741 56.5679C111.741 62.1137 111.741 62.1137 111.741 62.1137H84.6854C80.5074 62.1137 76.3561 61.0636 73.2886 57.9927C70.2216 54.9223 69.1729 50.7677 69.1729 46.5853V15.5284C69.1729 11.346 70.2222 7.17405 73.3318 4.0978Z" fill="#FE6F61"/>
<path fill-rule="evenodd" clip-rule="evenodd" d="M69.1745 25.9138L105.058 25.9138L105.058 36.2002L69.1745 36.2002L69.1745 25.9138Z" fill="white"/>
<mask id="mask0_768_3984" style="mask-type:alpha" maskUnits="userSpaceOnUse" x="69" y="0" width="43" height="63">
<path fill-rule="evenodd" clip-rule="evenodd" d="M73.3318 4.0978C76.4296 1.03328 80.6198 0 84.8444 0H109.759V11.0917H84.8444C82.2658 11.0917 81.3917 11.7222 81.1258 11.9852C80.8718 12.2365 80.2584 13.0558 80.2584 15.5284V46.5853C80.2584 49.058 80.8724 49.8946 81.1293 50.1518C81.3857 50.4084 82.2192 51.022 84.6854 51.022H111.741C111.741 51.022 111.741 51.022 111.741 56.5679C111.741 62.1137 111.741 62.1137 111.741 62.1137H84.6854C80.5074 62.1137 76.3561 61.0636 73.2886 57.9927C70.2216 54.9223 69.1729 50.7677 69.1729 46.5853V15.5284C69.1729 11.346 70.2222 7.17405 73.3318 4.0978Z" fill="url(#paint0_linear_768_3984)"/>
</mask>
<g mask="url(#mask0_768_3984)">
</g>
<path fill-rule="evenodd" clip-rule="evenodd" d="M249.591 4.09829C252.688 1.03376 256.879 0.000488281 261.103 0.000488281H286.017V11.0922H261.103C258.525 11.0922 257.65 11.7227 257.385 11.9857C257.131 12.237 256.517 13.0563 256.517 15.5289V46.5858C256.517 49.0584 257.131 49.8951 257.388 50.1523C257.644 50.4089 258.478 51.0225 260.944 51.0225H288C288 51.0225 288 51.0225 288 56.5684C288 62.1142 288 62.1142 288 62.1142H260.944C256.766 62.1142 252.615 61.0641 249.547 57.9932C246.48 54.9228 245.432 50.7682 245.432 46.5858V15.5289C245.432 11.3465 246.481 7.17454 249.591 4.09829Z" fill="#6CCD86"/>
<path fill-rule="evenodd" clip-rule="evenodd" d="M245.431 25.9143L281.314 25.9143L281.314 36.2007L245.431 36.2007L245.431 25.9143Z" fill="white"/>
<path fill-rule="evenodd" clip-rule="evenodd" d="M161.849 62.1137V0L172.934 0V62.1137H161.849Z" fill="white"/>
<path fill-rule="evenodd" clip-rule="evenodd" d="M138.626 11.2026L126.597 11.2026L126.597 0.110843L138.626 0.11084C140.66 0.11084 142.98 0.510086 145.259 1.77433C147.552 3.04579 149.464 5.00378 150.957 7.59282C153.826 12.5657 155.308 20.1343 155.308 31.1677C155.308 41.5942 156.78 46.7811 158.175 49.1988C158.813 50.305 159.359 50.701 159.645 50.8597C159.944 51.0257 160.325 51.1328 160.905 51.1328H172.934V62.2246H160.905C158.871 62.2246 156.551 61.8253 154.271 60.5611C151.979 59.2896 150.067 57.3316 148.573 54.7426C145.705 49.7696 144.223 42.201 144.223 31.1677C144.223 20.7411 142.75 15.5542 141.356 13.1366C140.718 12.0304 140.172 11.6344 139.886 11.4757C139.586 11.3097 139.206 11.2026 138.626 11.2026Z" fill="#6CCD86"/>
<path fill-rule="evenodd" clip-rule="evenodd" d="M126.485 62.1137V0L137.571 0V62.1137H126.485Z" fill="white"/>
<defs>
<linearGradient id="paint0_linear_768_3984" x1="104.48" y1="29.0049" x2="74.7156" y2="29.0049" gradientUnits="userSpaceOnUse">
<stop stop-color="#6CCD86"/>
<stop offset="1" stop-color="#366743" stop-opacity="0"/>
</linearGradient>
</defs>
</svg>
