<?xml version="1.0" encoding="utf-8"?>
<!-- Generator: Adobe Illustrator 27.3.1, SVG Export Plug-In . SVG Version: 6.00 Build 0)  -->
<svg version="1.1" id="Слой_1" xmlns="http://www.w3.org/2000/svg" xmlns:xlink="http://www.w3.org/1999/xlink" x="0px" y="0px"
	 viewBox="0 0 1800 1000" style="enable-background:new 0 0 1800 1000;" xml:space="preserve">
<style type="text/css">
	.st0{fill:#FFFFFF;}
</style>
<g>
	<path d="M201.3,657.75c-1.03,5.91-1.3,13.09-1.3,24.39c0,12.73,10.31,23.06,23.04,23.06h129.78c10.13,0,19.76-0.01,28.89-0.01
		c39.93-0.03,70.85-0.13,91.87-0.3c9.07-0.07,17.9-1.86,26.25-5.33c8.39-3.48,15.89-8.48,22.3-14.85l0.23-0.24
		c22.66-22.66,35.13-52.77,35.13-84.82c0-10.79-1.42-21.46-4.22-31.72c-2.71-9.97-6.75-19.55-11.95-28.48
		c-5.2-8.94-11.57-17.22-18.97-24.62c-5.61-5.61-15.05-14.34-21.57-18.7c-0.31-0.5-0.74-0.75-1.25-0.82
		c2.75-2.53,6.32-5.95,10.85-10.49c14.29-14.29,24.78-31.96,30.36-51.12c3-10.31,4.6-21.06,4.76-31.94
		c0.02-1.38,0.02-2.76-0.01-4.13c0-26.2-7.46-45.92-17.88-60.69c-10.85-15.39-24.91-25.4-37.07-31.75
		c-12.71-6.64-26.87-10.05-41.21-10.07l-93.93-0.18l-131.6-0.15h-0.03c-13.14,0-23.79,10.65-23.79,23.8
		c0,25.35,1.92,33.79,10.81,47.49c0.72,1.13,3.03,4.64,46.72,48.76l-11.24,11.35c-5.28,4.63-31.28,30.97-34.26,35.3
		c-7.4,10.69-11.55,23.23-11.99,36.26c-0.44,13,2.83,25.84,9.45,37.12c2.5,4.26,8,10.49,34.83,37.64l1.71,1.73
		c2.23,2.26,4.61,4.66,7.14,7.2l2.36,2.38c0.65,0.66,1.32,1.33,1.99,2.01l0,0l28.01,28.27l0.04-0.04c6.3,6.37,11.89,12.03,16.77,17
		c16.16,16.46,20.12,25.32,21.5,27.04c0.64,1.14,1.65,3.93,2.45,6.49c-7.86,0.19-19.16,0.37-40.25,0.37h-41.83
		c1.14-5.63,0.65-9.75,15.63-24.97l7.6-7.72l-28.05-28.31l-1.33,1.33l-8.39,8.51c-16.57,16.74-18.22,18.54-22.5,27.2
		C204.12,647.21,202.33,651.84,201.3,657.75z M259.64,469.26l15.69-15.78l10.33-10.31c37.72,37.94,42.79,43.37,44.08,46.9l0.03,0.07
		c1.3,3.36,1.73,5.95,1.73,10.28c0,5.36-0.22,6.36-2.35,10.77l-0.04,0.08c-2.08,4.51-3.89,6.72-24.1,27.03l-18.9,18.9l-18.9-18.9
		c-26.58-26.5-26.58-26.94-26.58-38.31C240.64,489.52,240.64,488.42,259.64,469.26z M333.77,604.93l-19.44-19.51l19.95-20.03
		c24.87-24.95,29.62-30.4,33.74-42.95c1.31-3.97,2.3-8,2.94-11.97c1.15-7.15,1.2-14.26,0.14-21.12c-1.4-9.09-4.71-17.75-9.84-25.73
		l-0.04-0.07c-2.32-3.49-15.84-17.8-27.02-29.06l-1.5-1.52l-0.27-0.27l-66.3-66.38l-0.5-0.5c-1.15-1.15-2.25-2.25-3.3-3.3
		l-0.15-0.15c-0.26-0.26-0.51-0.52-0.76-0.77c-16.83-16.95-19.61-20.88-20.64-26.61h89.46c-0.47,1.61-1.23,3.73-2.05,5.53
		c-1.73,3.81-4.69,8.02-23.16,26.5l-0.98,0.98l28.38,28.41l1.87-1.88c10.98-11.06,24.13-25.69,27.02-29.1
		c6.59-7.8,12.7-16.45,14.28-26.19l0.7-4.32l60.39,0.28c-0.15-0.01-0.22-0.01-0.25-0.01c0.09,0,0.6,0.01,0.6,0.01l-0.32,0
		c0.08,0.01,0.19,0.01,0.32,0.01c6.95,0.23,31.72,2.47,50.58,21.33c4.91,5.5,9.26,12.4,12.3,21.06
		c10.27,29.23,1.73,61.94-21.53,82.41c-7.85,6.91-17.09,12.32-27.26,15.74c-0.01,0-0.01,0-0.02,0.01c-0.64,0.22-1.29,0.42-1.95,0.63
		c-0.48,0.15-0.96,0.33-1.42,0.53l0,0l-20.46,7.78c-0.75,0.28-1.51,0.53-2.27,0.79c-4.13,1.4-6.97,5.29-6.97,9.72v9.56
		c0,4.72,3.22,8.84,7.81,9.97l33.94,8.34c0,0,0.01,0,0.02,0.01c1.31,0.23,56.68,10.57,57.65,73.22v0.03
		c-0.01,35.74-16.51,52.98-30.94,61.23c-8.57,4.9-18.32,7.38-28.19,7.4c-6.05,0.01-12.88,0.02-20.67,0.02h-64.38
		c-1.62-12.39-6.96-22.88-13.18-32.03C357.89,629.61,344.61,615.91,333.77,604.93z"/>
	<g>
		<g>
			<path d="M791.44,435.44c-5.1-6.81-11.84-11.95-20.24-15.43c5.13-3,9.46-7.08,12.99-12.22c5.39-7.85,8.08-17.28,8.08-28.27
				c0-9.06-2.16-17.67-6.49-25.85c-4.33-8.18-10.77-14.85-19.33-20.03c-8.56-5.17-19.14-7.76-31.75-7.76h-78.14v199.58h85.59
				c12.61,0,23.35-2.42,32.24-7.28c8.88-4.85,15.64-11.62,20.29-20.3c4.65-8.69,6.97-18.9,6.97-30.63
				C801.65,455.15,798.25,444.54,791.44,435.44z M685.83,353.18h48.45c8.65,0,15.55,2.49,20.71,7.48
				c5.15,4.99,7.73,11.37,7.73,19.12c0,5.82-1.27,10.79-3.8,14.9c-2.53,4.12-5.94,7.26-10.22,9.42c-4.28,2.17-9.09,3.26-14.43,3.26
				h-48.45V353.18z M767.63,483.4c-3,4.67-7.09,8.25-12.29,10.74c-5.2,2.5-11.07,3.74-17.6,3.74h-51.91v-63.2h53.7
				c6.63,0,12.4,1.41,17.33,4.23c4.92,2.82,8.7,6.65,11.32,11.5c2.62,4.85,3.93,10.28,3.93,16.28
				C772.11,473.16,770.61,478.73,767.63,483.4z"/>
			<rect x="825.95" y="323.11" width="28.85" height="28.14"/>
			<rect x="825.95" y="375.78" width="28.85" height="149.69"/>
			<path d="M1018.58,409.59c-5.99-11.83-14.45-21.11-25.4-27.86s-23.88-10.12-38.79-10.12c-14.63,0-27.43,3.3-38.38,9.91
				c-10.95,6.61-19.46,15.85-25.54,27.72c-6.08,11.87-9.11,25.62-9.11,41.23c0,15.52,2.97,29.23,8.9,41.09
				c5.94,11.88,14.38,21.18,25.33,27.93c10.95,6.74,23.88,10.12,38.79,10.12c14.82,0,27.7-3.35,38.65-10.05
				c10.95-6.7,19.44-15.98,25.47-27.86c6.03-11.87,9.04-25.62,9.04-41.24C1027.55,435.05,1024.56,421.42,1018.58,409.59z
				 M986.35,487.83c-7.04,9.66-17.69,14.48-31.96,14.48c-13.9,0-24.43-4.71-31.61-14.14c-7.18-9.42-10.77-21.99-10.77-37.7
				c0-10.16,1.52-19.1,4.56-26.82c3.04-7.71,7.68-13.77,13.94-18.16c6.25-4.39,14.22-6.58,23.88-6.58
				c14.08,0,24.68,4.69,31.82,14.07c7.13,9.38,10.7,21.88,10.7,37.49C996.91,465.73,993.39,478.18,986.35,487.83z"/>
			<path d="M1091.72,399.06v66.11c0,6.01,0.07,11.23,0.21,15.66c0.14,4.44,1.08,8.18,2.83,11.23c3.31,5.73,8.58,8.98,15.81,9.77
				c7.22,0.79,15.71,0.48,25.47-0.9v24.53c-9.39,1.85-18.59,2.63-27.61,2.35c-9.02-0.27-17.07-2.03-24.16-5.27
				c-7.09-3.23-12.42-8.32-16.01-15.25c-3.22-6.19-4.95-12.49-5.17-18.92c-0.23-6.42-0.34-13.7-0.34-21.83v-67.5h-28.58v-23.28
				h28.58v-41.58h28.99v41.58h44.31v23.28H1091.72z"/>
			<path d="M1414.27,477.37l29.27,6.93c-4.88,14.6-12.93,25.8-24.16,33.61c-11.23,7.81-24.85,11.71-40.86,11.71
				c-15.28,0-28.26-3.42-38.93-10.26c-10.67-6.84-18.85-16.22-24.51-28.14c-5.66-11.92-8.53-25.45-8.63-40.61
				c0.09-15.43,3.04-29.08,8.84-40.96c5.8-11.87,14.08-21.18,24.85-27.93s23.7-10.12,38.79-10.12c16.29,0,30.21,4.06,41.76,12.2
				c11.55,8.13,19.17,19.27,22.85,33.4l-28.71,8.32c-2.85-8.41-7.52-14.95-14.01-19.61c-6.49-4.66-13.92-7-22.29-7
				c-9.48,0-17.26,2.24-23.33,6.72c-6.08,4.49-10.59,10.6-13.53,18.37c-2.95,7.76-4.47,16.63-4.56,26.61
				c0.09,15.43,3.61,27.9,10.56,37.42c6.95,9.52,17.23,14.27,30.85,14.27c9.29,0,16.82-2.15,22.57-6.44
				C1406.84,491.57,1411.23,485.4,1414.27,477.37z"/>
			<path d="M1258.67,382.22c-10.67-7.07-23.6-10.6-38.79-10.6c-14.54,0-27.29,3.28-38.24,9.84c-10.95,6.56-19.49,15.85-25.6,27.86
				c-6.12,12.01-9.18,26.19-9.18,42.55c0,15.43,3.1,28.99,9.32,40.68c6.21,11.69,14.91,20.79,26.09,27.3
				c11.18,6.52,24.18,9.78,39,9.78c14.45,0,27.56-3.68,39.35-11.02c11.78-7.35,20.57-17.72,26.36-31.12l-28.3-9.01
				c-3.68,7.67-8.81,13.56-15.39,17.67c-6.58,4.12-14.38,6.17-23.4,6.17c-13.72,0-24.21-4.5-31.48-13.51
				c-6.01-7.45-9.54-17.46-10.58-30.01h111.08c1.1-17.92-0.99-33.4-6.28-46.43C1277.32,399.34,1269.34,389.29,1258.67,382.22z
				 M1178.47,436.2c1.52-10.41,4.83-18.82,9.92-25.22c7.27-9.15,18.13-13.72,32.58-13.72c13.07,0,22.8,4.16,29.19,12.47
				c4.82,6.26,7.87,15.08,9.17,26.47H1178.47z"/>
			<path d="M1600,442.3v83.16h-29.27v-73.6c0-5.82-0.49-11.8-1.45-17.95c-0.97-6.14-2.81-11.85-5.52-17.12
				c-2.72-5.27-6.54-9.51-11.46-12.75c-4.92-3.23-11.34-4.85-19.26-4.85c-5.16,0-10.03,0.86-14.63,2.57
				c-4.6,1.71-8.63,4.46-12.08,8.25c-3.45,3.79-6.17,8.78-8.15,14.97c-1.98,6.19-2.97,13.72-2.97,22.59v77.89h-29.27V325.88h25.81
				v67.86c4.14-5.28,9.11-9.69,14.91-13.25c9.48-5.82,20.93-8.73,34.37-8.73c10.31,0,18.96,1.66,25.95,4.99
				c6.99,3.32,12.68,7.69,17.05,13.1c4.37,5.4,7.71,11.3,10.01,17.67c2.3,6.37,3.86,12.61,4.69,18.71
				C1599.58,432.32,1600,437.68,1600,442.3z"/>
		</g>
		<g>
			<path d="M656.57,688.9V586.04h12.66V688.9H656.57z"/>
			<path d="M708.56,688.9V586.04h12.81l53.43,80.36v-80.36h12.81V688.9h-12.81l-53.43-80.43v80.43H708.56z"/>
			<path d="M825.5,688.9V586.04h31.59c1.04,0,2.87,0.02,5.48,0.07c2.61,0.05,5.1,0.24,7.47,0.57c7.92,1.05,14.55,3.94,19.89,8.68
				c5.34,4.74,9.36,10.75,12.06,18.04s4.06,15.31,4.06,24.07c0,8.76-1.35,16.79-4.06,24.07c-2.7,7.29-6.72,13.3-12.06,18.04
				c-5.34,4.74-11.96,7.63-19.89,8.68c-2.37,0.29-4.87,0.46-7.51,0.54c-2.63,0.07-4.45,0.11-5.44,0.11H825.5z M838.52,676.76h18.57
				c1.8,0,3.82-0.06,6.05-0.18c2.23-0.12,4.17-0.32,5.83-0.61c5.6-1.05,10.13-3.4,13.59-7.07c3.46-3.67,6-8.24,7.61-13.71
				c1.61-5.48,2.42-11.38,2.42-17.71c0-6.48-0.82-12.45-2.45-17.93c-1.64-5.48-4.19-10.02-7.65-13.64
				c-3.46-3.62-7.97-5.93-13.52-6.93c-1.66-0.33-3.63-0.55-5.91-0.64c-2.28-0.09-4.27-0.14-5.98-0.14h-18.57V676.76z"/>
			<path d="M980.79,691.05c-7.92,0-14.92-1.64-20.99-4.93c-6.07-3.29-10.83-7.89-14.26-13.82c-3.44-5.93-5.16-12.89-5.16-20.89
				v-65.29l12.81-0.07v64.29c0,4.86,0.82,9.08,2.45,12.68c1.64,3.6,3.81,6.58,6.51,8.96c2.7,2.38,5.68,4.16,8.93,5.32
				c3.25,1.17,6.49,1.75,9.71,1.75c3.27,0,6.55-0.59,9.82-1.79c3.27-1.19,6.25-2.96,8.93-5.32c2.68-2.36,4.83-5.35,6.44-8.96
				c1.61-3.62,2.42-7.83,2.42-12.64v-64.29h12.81v65.36c0,7.95-1.72,14.91-5.16,20.86c-3.44,5.95-8.19,10.57-14.26,13.86
				C995.71,689.4,988.71,691.05,980.79,691.05z"/>
			<path d="M1091.19,691.05c-7.26,0-13.79-1.24-19.6-3.71c-5.81-2.48-10.6-6.01-14.37-10.61c-3.77-4.6-6.23-10.04-7.36-16.32
				l13.09-2.07c1.66,6.48,5.11,11.54,10.35,15.18c5.24,3.64,11.42,5.46,18.53,5.46c4.6,0,8.76-0.73,12.49-2.18
				c3.72-1.45,6.68-3.54,8.86-6.25c2.18-2.71,3.27-5.93,3.27-9.64c0-2.29-0.39-4.25-1.17-5.89c-0.78-1.64-1.85-3.05-3.2-4.21
				c-1.35-1.17-2.88-2.15-4.59-2.96c-1.71-0.81-3.49-1.48-5.34-2l-26.11-7.79c-2.85-0.86-5.6-1.94-8.25-3.25
				c-2.66-1.31-5.03-2.95-7.11-4.93c-2.09-1.98-3.75-4.36-4.98-7.14c-1.23-2.79-1.85-6.08-1.85-9.89c0-6.09,1.58-11.3,4.73-15.61
				c3.15-4.31,7.43-7.61,12.84-9.89c5.41-2.29,11.5-3.4,18.28-3.36c6.88,0.05,13.03,1.27,18.46,3.68
				c5.43,2.41,9.94,5.85,13.52,10.32c3.58,4.48,5.99,9.83,7.22,16.07l-13.45,2.36c-0.71-4.19-2.29-7.8-4.73-10.82
				c-2.44-3.02-5.49-5.36-9.14-7c-3.65-1.64-7.66-2.49-12.02-2.54c-4.17-0.05-7.94,0.62-11.31,2c-3.37,1.38-6.05,3.3-8.04,5.75
				c-1.99,2.45-2.99,5.27-2.99,8.46c0,3.14,0.9,5.68,2.7,7.61c1.8,1.93,4.02,3.45,6.65,4.57c2.63,1.12,5.2,2.04,7.72,2.75
				l19.49,5.64c2.23,0.62,4.8,1.48,7.72,2.57c2.92,1.1,5.75,2.63,8.5,4.61c2.75,1.98,5.03,4.6,6.83,7.86
				c1.8,3.26,2.7,7.37,2.7,12.32c0,4.95-0.98,9.36-2.95,13.21c-1.97,3.86-4.71,7.08-8.22,9.68c-3.51,2.6-7.59,4.57-12.24,5.93
				C1101.48,690.37,1096.5,691.05,1091.19,691.05z"/>
			<path d="M1188.85,688.9v-90.79h-34.93v-12.07h82.53v12.07h-34.93v90.79H1188.85z"/>
			<path d="M1321.53,648.18c4.76-1.95,8.57-4.96,11.45-9.03c4.13-5.83,6.19-12.73,6.19-20.68c0-5.48-0.95-10.46-2.85-14.96
				c-1.9-4.5-4.73-8.22-8.5-11.18c-3.77-2.95-8.43-4.86-13.98-5.72c-1.28-0.23-2.61-0.39-3.99-0.46c-1.38-0.07-2.56-0.11-3.56-0.11
				h-40.48V688.9h12.67v-38h29.96l18.35,38h14.51L1321.53,648.18z M1278.48,638.83v-40.71h27.39c0.9,0,1.93,0.04,3.1,0.11
				c1.16,0.07,2.26,0.25,3.31,0.54c3.27,0.71,5.94,2.09,8,4.14c2.07,2.05,3.57,4.44,4.52,7.18c0.95,2.74,1.42,5.54,1.42,8.39
				c0,2.86-0.48,5.65-1.42,8.39c-0.95,2.74-2.45,5.12-4.52,7.14c-2.07,2.03-4.73,3.42-8,4.18c-1.04,0.24-2.14,0.41-3.31,0.5
				c-1.17,0.09-2.2,0.14-3.1,0.14H1278.48z"/>
			<path d="M1376.35,688.9V586.04h12.66V688.9H1376.35z"/>
			<path d="M1428.34,688.9V586.04h64.74v12.07h-52.08v32.21h43.54v12.07h-43.54v34.43h52.08v12.07H1428.34z"/>
			<path d="M1561.65,691.05c-7.26,0-13.79-1.24-19.6-3.71c-5.81-2.48-10.6-6.01-14.37-10.61c-3.77-4.6-6.23-10.04-7.36-16.32
				l13.09-2.07c1.66,6.48,5.11,11.54,10.35,15.18c5.24,3.64,11.42,5.46,18.53,5.46c4.6,0,8.76-0.73,12.49-2.18
				c3.72-1.45,6.68-3.54,8.86-6.25c2.18-2.71,3.27-5.93,3.27-9.64c0-2.29-0.39-4.25-1.17-5.89c-0.78-1.64-1.85-3.05-3.2-4.21
				c-1.35-1.17-2.88-2.15-4.59-2.96c-1.71-0.81-3.49-1.48-5.34-2l-26.11-7.79c-2.85-0.86-5.6-1.94-8.25-3.25
				c-2.66-1.31-5.03-2.95-7.11-4.93c-2.09-1.98-3.75-4.36-4.98-7.14c-1.23-2.79-1.85-6.08-1.85-9.89c0-6.09,1.58-11.3,4.73-15.61
				c3.15-4.31,7.43-7.61,12.84-9.89c5.41-2.29,11.5-3.4,18.28-3.36c6.88,0.05,13.03,1.27,18.46,3.68
				c5.43,2.41,9.94,5.85,13.52,10.32c3.58,4.48,5.99,9.83,7.22,16.07l-13.45,2.36c-0.71-4.19-2.29-7.8-4.73-10.82
				c-2.44-3.02-5.49-5.36-9.14-7c-3.65-1.64-7.66-2.49-12.02-2.54c-4.17-0.05-7.95,0.62-11.31,2c-3.37,1.38-6.05,3.3-8.04,5.75
				c-1.99,2.45-2.99,5.27-2.99,8.46c0,3.14,0.9,5.68,2.7,7.61c1.8,1.93,4.02,3.45,6.65,4.57c2.63,1.12,5.2,2.04,7.72,2.75
				l19.49,5.64c2.23,0.62,4.8,1.48,7.72,2.57c2.92,1.1,5.75,2.63,8.5,4.61c2.75,1.98,5.03,4.6,6.83,7.86
				c1.8,3.26,2.7,7.37,2.7,12.32c0,4.95-0.98,9.36-2.95,13.21c-1.97,3.86-4.71,7.08-8.22,9.68c-3.51,2.6-7.59,4.57-12.24,5.93
				C1571.94,690.37,1566.96,691.05,1561.65,691.05z"/>
		</g>
	</g>
</g>
</svg>
