<?xml version="1.0" encoding="utf-8"?>
<svg version="1.1" xmlns="http://www.w3.org/2000/svg" xmlns:xlink="http://www.w3.org/1999/xlink"
	x="0px" y="0px" viewBox="0 0 1000 1000" fill="currentColor" width="1000" height="1000">
	<path
		d="M240.56,730.64c-1.5,8.64-1.89,19.14-1.89,35.66c0,18.61,15.07,33.71,33.68,33.71H462.1c14.81,0,28.9-0.01,42.24-0.02
	c58.38-0.05,103.58-0.19,134.32-0.43c13.26-0.1,26.17-2.73,38.38-7.79c12.26-5.09,23.23-12.39,32.6-21.71l0.34-0.34
	c33.12-33.12,51.36-77.16,51.36-124c0-15.77-2.07-31.37-6.17-46.37c-3.97-14.58-9.86-28.58-17.46-41.64
	c-7.6-13.07-16.92-25.18-27.73-35.99c-8.21-8.21-22-20.96-31.54-27.35c-0.45-0.73-1.08-1.1-1.82-1.2c4.03-3.71,9.23-8.7,15.86-15.33
	c20.89-20.89,36.23-46.73,44.39-74.74c4.39-15.08,6.73-30.79,6.96-46.69c0.03-2.02,0.02-4.04-0.02-6.04
	c0-38.3-10.91-67.14-26.14-88.73c-15.86-22.5-36.41-37.13-54.19-46.42c-18.59-9.71-39.28-14.69-60.26-14.73l-137.32-0.26L273.49,200
	h-0.04c-19.21,0-34.79,15.57-34.79,34.79c0,37.06,2.8,49.41,15.8,69.44c1.05,1.65,4.43,6.78,68.31,71.29l-16.43,16.59
	c-7.72,6.77-45.73,45.28-50.09,51.61c-10.82,15.63-16.88,33.96-17.53,53.01c-0.64,19.01,4.14,37.77,13.82,54.27
	c3.66,6.23,11.69,15.33,50.92,55.02l2.5,2.53c3.27,3.3,6.74,6.81,10.43,10.53l3.45,3.48c0.96,0.96,1.93,1.94,2.91,2.93l0,0
	l40.95,41.34l0.06-0.06c9.21,9.31,17.38,17.59,24.51,24.86c23.62,24.06,29.41,37.02,31.43,39.53c0.93,1.67,2.41,5.75,3.59,9.5
	c-11.49,0.28-28.01,0.55-58.85,0.55h-61.16c1.67-8.22,0.95-14.26,22.85-36.5l11.11-11.29l-41.01-41.38l-1.94,1.94l-12.27,12.45
	c-24.22,24.47-26.64,27.1-32.9,39.76C244.68,715.22,242.07,721.99,240.56,730.64z M325.86,455.06l22.94-23.07l15.11-15.08
	c55.14,55.46,62.55,63.41,64.45,68.57l0.04,0.11c1.9,4.91,2.54,8.7,2.54,15.03c0,7.83-0.32,9.3-3.43,15.74l-0.06,0.12
	c-3.04,6.6-5.68,9.83-35.23,39.52l-27.63,27.63l-27.64-27.64c-38.86-38.74-38.86-39.39-38.86-56.01
	C298.08,484.67,298.08,483.07,325.86,455.06z M434.23,653.41l-28.42-28.52l29.17-29.28c36.35-36.48,43.3-44.44,49.33-62.8
	c1.92-5.8,3.37-11.69,4.3-17.5c1.69-10.46,1.76-20.85,0.21-30.88c-2.04-13.29-6.88-25.95-14.39-37.61l-0.06-0.1
	c-3.4-5.1-23.16-26.03-39.5-42.48l-2.2-2.22l-0.4-0.4l-96.94-97.04l-0.74-0.74c-1.69-1.68-3.3-3.29-4.83-4.83l-0.22-0.22
	c-0.38-0.38-0.75-0.76-1.12-1.13c-24.61-24.78-28.67-30.53-30.18-38.91h130.79c-0.69,2.35-1.8,5.45-2.99,8.08
	c-2.53,5.58-6.86,11.73-33.86,38.74l-1.43,1.44l41.5,41.54l2.73-2.75c16.06-16.16,35.29-37.55,39.5-42.54
	c9.63-11.4,18.57-24.05,20.88-38.29l1.02-6.32l88.29,0.41c-0.21-0.01-0.32-0.01-0.37-0.02c0.14,0,0.87,0.02,0.87,0.02l-0.47,0
	c0.12,0.01,0.27,0.01,0.47,0.02c10.16,0.33,46.37,3.6,73.94,31.18c7.19,8.04,13.53,18.13,17.98,30.79
	c15.01,42.73,2.52,90.56-31.47,120.48c-11.48,10.11-24.98,18-39.85,23.02c-0.01,0-0.01,0-0.03,0.01c-0.94,0.32-1.89,0.62-2.85,0.91
	c-0.71,0.22-1.4,0.48-2.07,0.78l0,0l-29.91,11.38c-1.09,0.42-2.21,0.78-3.31,1.15c-6.04,2.04-10.19,7.73-10.19,14.21v13.98
	c0,6.91,4.71,12.92,11.42,14.57l49.62,12.2c0,0,0.01,0,0.03,0.01c1.91,0.34,82.86,15.45,84.28,107.04v0.04
	c-0.01,52.25-24.13,77.46-45.23,89.52c-12.53,7.16-26.78,10.79-41.21,10.82c-8.84,0.02-18.83,0.03-30.22,0.03H492
	c-2.36-18.12-10.18-33.44-19.27-46.83C469.5,689.49,450.08,669.47,434.23,653.41z" />
</svg>