<svg width="20" height="28" viewBox="0 0 20 28" fill="none" xmlns="http://www.w3.org/2000/svg">
<path d="M19.2095 17.4028C18.6854 14.822 18.4253 12.1765 18.2886 9.54952C18.156 7.00081 19.1105 -0.542523 18.3487 1.89328C17.9007 3.32578 14.5397 17.3474 14.1994 17.3421C13.1563 17.3261 12.5438 13.6038 11.8624 16.0658C11.5966 17.0258 11.7288 18.0713 10.5789 17.2533C8.6054 15.8493 6.76086 14.2722 4.74142 12.9295C3.93717 12.3948 4.62563 12.9568 4.77702 13.3022C5.72468 15.4643 5.75817 18.1058 6.14765 20.4099C6.23554 20.9298 6.34235 21.5623 6.48567 22.0855C6.52489 22.2286 6.78152 22.444 6.64465 22.5014C5.95199 22.7918 3.33784 21.6618 2.59989 21.5046C-1.11039 20.7143 3.17471 22.8509 4.29243 23.8213C5.55529 24.9177 6.71977 26.0738 7.59307 27.494" stroke="white" stroke-linecap="round"/>
</svg>
