<svg width="65" height="102" viewBox="0 0 65 102" fill="none" xmlns="http://www.w3.org/2000/svg">
<path d="M62.8371 44.975C59.226 53.6442 56.4941 62.7216 54.2069 71.8191C51.9879 80.6456 50.1331 107.697 49.1449 98.6492C48.5638 93.3285 46.4596 41.9532 45.2651 41.7372C41.6043 41.0751 36.8981 53.6774 36.2091 44.5938C35.9404 41.0517 37.1227 37.4846 32.536 39.555C24.664 43.1083 17.124 47.3564 9.13352 50.6636C5.95129 51.9807 8.74714 50.4885 9.51472 49.3842C14.3195 42.4715 16.2556 33.2522 19.2051 25.4585C19.8706 23.6999 20.6799 21.5604 21.5416 19.8286C21.7774 19.3547 22.8237 18.7779 22.3843 18.4828C20.1607 16.9897 10.2358 19.1431 7.5455 19.185C-5.98087 19.3955 10.4838 14.8705 15.0629 12.2448C20.2366 9.27817 25.1072 6.03485 29.1408 1.6671" stroke="white" stroke-width="3" stroke-linecap="round"/>
</svg>
