<svg width="20" height="28" viewBox="0 0 20 28" fill="none" xmlns="http://www.w3.org/2000/svg">
<path d="M1.38912 17.4028C1.91323 14.822 2.17334 12.1765 2.31 9.54952C2.44258 7.00081 1.48809 -0.542523 2.2499 1.89328C2.69792 3.32578 6.05889 17.3474 6.39924 17.3421C7.44234 17.3261 8.0548 13.6038 8.73626 16.0658C9.00199 17.0258 8.86984 18.0713 10.0197 17.2533C11.9932 15.8493 13.8378 14.2722 15.8572 12.9295C16.6615 12.3948 15.973 12.9568 15.8216 13.3022C14.874 15.4643 14.8405 18.1058 14.451 20.4099C14.3631 20.9298 14.2563 21.5623 14.113 22.0855C14.0737 22.2286 13.8171 22.444 13.954 22.5014C14.6466 22.7918 17.2608 21.6618 17.9987 21.5046C21.709 20.7143 17.4239 22.8509 16.3062 23.8213C15.0433 24.9177 13.8789 26.0738 13.0056 27.494" stroke="white" stroke-linecap="round"/>
</svg>
