<svg width="5000" height="1755" viewBox="0 0 5000 1755" fill="none" xmlns="http://www.w3.org/2000/svg">
<g clip-path="url(#clip0)">
<path d="M1482.41 1096.78C1480.22 1095.52 1477.86 1094.9 1475.68 1093.77C1501.87 1017.33 1515.69 936.505 1515.69 855.169C1515.69 785.287 1505.8 717.695 1487.58 653.591C1559.91 607.983 1584.16 513.279 1541.06 438.474C1499.24 366.164 1409.74 339.565 1335.32 373.959C1233.65 256.862 1095.86 172.073 939.157 137.474C928.077 59.8308 861.936 -0.0341743 781.259 1.46702e-05C700.652 -0.0341743 634.647 59.694 623.362 137.166C466.25 171.458 327.709 256.007 225.658 373.275C151.583 339.941 63.0069 366.711 21.5232 438.508C-21.3626 512.767 2.33742 606.547 73.6086 652.565C55.1069 716.978 44.8813 784.877 44.8813 855.169C44.8813 937.223 58.7662 1018.01 85.0996 1094.56C83.4922 1095.42 81.7481 1095.89 80.1407 1096.78C3.46599 1141.02 -22.7306 1238.91 21.4891 1315.49C65.7087 1392.14 163.689 1418.4 240.296 1374.12C244.297 1371.8 247.649 1368.79 251.376 1366.19C352.162 1470.88 481.23 1542.85 623.088 1573.58C622.233 1580.25 621.002 1586.92 621.002 1593.89C620.933 1682.3 692.683 1754.03 781.191 1754.03C869.63 1754.03 941.38 1682.3 941.449 1593.89C941.449 1586.75 940.252 1579.94 939.294 1573.07C1080.91 1542.03 1209.33 1469.79 1309.81 1365.27C1313.88 1368.24 1317.64 1371.56 1322.09 1374.16C1398.62 1418.43 1496.67 1392.18 1540.96 1315.52C1585.28 1238.94 1558.98 1141.06 1482.41 1096.78ZM833.653 1443.22C817.169 1437.51 799.727 1433.78 781.294 1433.82C777.737 1433.82 774.42 1434.6 770.863 1434.81C741.417 1346.4 695.659 1246.98 633.519 1137.33C768.195 1090.12 888.748 1036.47 994.355 977.258C1003.52 985.908 1013.34 993.943 1024.76 1000.51C1081.87 1033.53 1150.88 1027.21 1200.58 990.079C1243.26 1031.35 1279.41 1070.56 1309.47 1105.4C1291.31 1118.29 1275.47 1134.87 1263.57 1155.38C1254.47 1171.11 1249.07 1187.73 1245.79 1204.62C1030.57 1232.51 903.659 1347.94 833.653 1443.22ZM299.016 598.684C307.155 584.529 312.183 569.555 315.637 554.443C435.402 568.426 552.569 597.282 665.495 641.249C624.49 749.149 570.592 846.109 504.861 930.18C424.185 809.835 342.073 701.832 280.548 624.257C287.388 616.462 293.612 607.983 299.016 598.684ZM556.707 1108.51C466.25 1138.08 383.625 1160.27 316.902 1176.34C384.24 1130.53 445.423 1077.26 499.8 1016.88C519.84 1048.03 538.889 1078.66 556.707 1108.51ZM534.991 975.891L535.059 975.857L534.922 975.72C608.519 884.709 668.573 778.996 713.545 660.908C798.325 697.387 880.403 742.927 959.677 795.852C938.781 841.767 940.833 892.982 962.892 935.514C859.029 993.225 739.913 1045.5 607.014 1091.59C584.819 1054.12 560.64 1015.31 534.991 975.891ZM796.786 318.744C817.237 316.761 836.389 311.12 853.83 302.197C989.157 471.569 1138.23 536.323 1248.04 559.571C1251.6 572.939 1256.25 586.136 1263.54 598.718C1276.36 620.941 1294.08 638.377 1314.12 651.642C1287.07 686.31 1256.01 719.986 1220.92 752.637C1210.43 741.457 1198.83 731.2 1184.91 723.166C1119.25 685.319 1038.3 699.439 988.473 752.261C905.71 697.011 819.665 650.001 731.123 612.051C768.195 501.997 787.142 399.669 796.786 318.744ZM1357.65 1081.95C1324.99 1043.41 1284.36 999.003 1236.01 952.198C1238.47 948.676 1241.34 945.599 1243.5 941.839C1270.27 895.444 1270.89 841.255 1250.37 795.852C1293.12 756.603 1330.88 715.849 1362.78 673.626C1387.44 679.917 1413.4 679.746 1438.74 673.797C1454.78 731.645 1463.77 792.33 1463.77 855.169C1463.77 930.966 1450.95 1006.28 1426.5 1077.53C1403.34 1073.94 1379.88 1075.55 1357.65 1081.95ZM1291.99 403.088C1263.2 430.508 1246.03 467.056 1242.78 505.45C1144.05 481.449 1014.94 420.388 895.793 271.939C917.167 249.99 932.318 221.989 938.473 190.672C1077.53 223.733 1200.17 299.359 1291.99 403.088ZM624.114 189.954C635.81 252.144 683.415 301.308 744.666 315.701C735.33 392.661 717.341 489.416 682.937 592.324C565.496 546.785 443.747 516.801 319.228 502.476C315.363 464.663 298.195 428.73 269.536 401.926C361.669 298.299 484.649 222.673 624.114 189.954ZM96.83 855.169C96.83 792.193 105.517 731.234 121.556 673.284C162.219 683.438 204.592 677.182 240.125 656.668C303.12 736.089 387.866 847.819 470.354 971.891C415.772 1034.32 353.119 1088.37 284.276 1134.84C247.614 1089.74 190.16 1068.71 134.244 1077.98C109.655 1006.76 96.83 931.582 96.83 855.169ZM289.201 1330.36C310.78 1301.03 321.143 1265.2 319.672 1228.96C391.798 1211.86 482.905 1187.59 583.519 1154.32C645.386 1262.46 690.871 1359.94 719.974 1445.99C683.963 1460.93 655.133 1488.79 638.033 1523.56C504.827 1495.5 383.727 1428.38 289.201 1330.36ZM924.349 1523.12C913.542 1501.27 897.982 1482.47 878.864 1467.7C943.672 1380.69 1056.53 1283.66 1244.25 1257.33C1247.84 1283.11 1257.28 1307.87 1272.7 1329.17C1178.45 1427.36 1057.56 1494.71 924.349 1523.12Z" fill="#111111"/>
<path d="M2570.83 665.848L2514.2 708.065C2483.49 667.767 2446.46 637.304 2403.11 616.675C2359.76 596.047 2312.17 585.732 2260.35 585.732C2203.4 585.732 2150.77 599.325 2102.46 626.51C2054.16 653.695 2016.65 690.235 1989.93 736.128C1963.22 782.022 1949.86 833.754 1949.86 891.325C1949.86 977.997 1979.62 1047.8 2039.12 1100.73C2098.63 1153.66 2173.65 1180.13 2264.19 1180.13C2364 1180.13 2447.34 1141.11 2514.21 1063.07L2570.83 1105.77C2535.32 1150.86 2491.01 1185.72 2437.9 1210.35C2384.8 1234.98 2325.61 1247.29 2260.35 1247.29C2135.58 1247.29 2037.2 1205.87 1965.22 1123.04C1905.07 1053 1875 973.679 1875 885.087C1875 781.144 1911.55 693.512 1984.65 622.19C2057.76 550.869 2149.17 515.209 2258.91 515.21C2325.45 515.21 2385.52 528.403 2439.1 554.789C2492.69 581.175 2536.6 618.194 2570.83 665.846L2570.83 665.848ZM2950.42 689.821C3031.36 689.821 3098.55 719.085 3151.97 777.614C3200.28 831.344 3224.44 894.83 3224.44 968.07C3224.44 1041.31 3198.84 1105.35 3147.65 1160.2C3096.47 1215.05 3030.72 1242.48 2950.42 1242.48C2869.8 1242.48 2803.98 1215.05 2752.95 1160.2C2701.92 1105.35 2676.41 1041.31 2676.41 968.07C2676.41 895.149 2700.56 831.824 2748.87 778.093C2802.3 719.245 2869.48 689.821 2950.42 689.821L2950.42 689.821ZM2950.42 756.042C2894.44 756.042 2846.29 776.831 2805.98 818.408C2765.67 859.986 2745.51 910.198 2745.51 969.046C2745.51 1007.11 2754.71 1042.69 2773.1 1075.79C2791.5 1108.89 2816.37 1134.32 2847.73 1152.06C2879.08 1169.81 2913.31 1178.69 2950.42 1178.69C2988.17 1178.69 3022.64 1169.81 3053.84 1152.06C3085.03 1134.31 3109.74 1108.89 3127.98 1075.79C3146.21 1042.69 3155.33 1007.11 3155.33 969.043C3155.33 910.195 3135.18 859.983 3094.87 818.405C3054.56 776.828 3006.41 756.04 2950.42 756.041L2950.42 756.042ZM3359.76 527.659H3431.26V1170.51H3704.8V1239.12H3359.76V527.684V527.659ZM4054.63 689.821C4135.57 689.821 4202.76 719.085 4256.18 777.614C4305.45 831.024 4330.08 894.51 4330.08 968.07C4330.72 1149.73 4330.72 1242 4330.08 1244.88H4258.58V1125.43C4221.15 1195.15 4153.17 1234.17 4054.63 1242.48C3974.01 1242.48 3908.19 1215.06 3857.16 1160.21C3806.13 1105.36 3780.62 1041.31 3780.62 968.073C3780.62 895.153 3804.77 831.828 3853.08 778.097C3906.51 719.249 3973.69 689.825 4054.63 689.825L4054.63 689.821ZM4054.63 756.042C3998.65 756.042 3950.5 776.831 3910.19 818.408C3869.88 859.986 3849.72 910.198 3849.72 969.046C3849.72 1007.11 3860.04 1043.73 3880.67 1078.91C3901.31 1114.09 3936.26 1143.83 3985.53 1168.14C4109.02 1195.64 4196.84 1139.51 4248.98 999.749C4251.86 954.973 4247.06 912.116 4234.59 871.179C4225.63 852.629 4213.31 835.038 4197.64 818.408C4158.29 776.83 4110.62 756.042 4054.63 756.042L4054.63 756.042ZM4503.8 1139.82C4475.01 1091.85 4457.73 1044.68 4451.98 998.3C4451.98 665.362 4451.98 499.212 4451.98 499.852H4519.16V793.454C4547.63 758.593 4579.47 732.607 4614.66 715.496C4649.85 698.386 4688.4 689.83 4730.31 689.83C4804.53 689.83 4868.03 716.856 4920.82 770.906C4973.61 824.957 5000 890.521 5000 967.599C5000 1043.4 4973.45 1108.16 4920.34 1161.89C4867.23 1215.62 4803.25 1242.49 4728.38 1242.49C4685.51 1242.49 4645.28 1234.25 4607.69 1217.78C4570.1 1201.31 4535.47 1175.32 4503.8 1139.82L4503.8 1139.82ZM4722.63 1177.72C4760.7 1177.72 4795.65 1168.37 4827.48 1149.66C4859.31 1130.95 4884.67 1104.96 4903.55 1071.7C4922.42 1038.44 4931.86 1002.94 4931.86 965.198C4931.86 928.099 4922.34 892.518 4903.31 858.456C4884.27 824.395 4858.68 798.01 4826.52 779.301C4794.37 760.592 4760.06 751.237 4723.59 751.236C4686.48 751.236 4651.29 760.591 4618.02 779.301C4584.75 798.011 4559.15 823.436 4541.24 855.578C4523.32 887.719 4514.36 923.62 4514.36 963.28C4514.36 1024.37 4534.52 1075.38 4574.83 1116.32C4615.14 1157.25 4664.41 1177.72 4722.63 1177.72L4722.63 1177.72Z" fill="#111111"/>
</g>
<defs>
<clipPath id="clip0">
<rect width="5000" height="1754.03" fill="white"/>
</clipPath>
</defs>
</svg>
