<svg width="261" height="209" viewBox="0 0 261 209" fill="none" xmlns="http://www.w3.org/2000/svg">
    <style>
        @media (prefers-color-scheme: dark) {
        .invert-on-dark path {
        filter: invert(0);
        }
        }
    </style>
<g class="invert-on-dark" clip-path="url(#clip0_702_344)">
<path fill-rule="evenodd" clip-rule="evenodd" d="M10.9387 5.8697C15.3358 1.48007 21.2838 0 27.2804 0H62.6456V15.8878H27.2804C23.6203 15.8878 22.3794 16.7909 22.0021 17.1677C21.6415 17.5276 20.7707 18.7012 20.7707 22.243V66.7289C20.7707 70.2707 21.6424 71.4692 22.007 71.8375C22.3709 72.2051 23.5541 73.084 27.0547 73.084H65.4593C65.4593 73.084 65.4596 73.084 65.4596 81.028C65.4596 88.9719 65.4593 88.9719 65.4593 88.9719H27.0547C21.1242 88.9719 15.2315 87.4677 10.8773 83.0689C6.52381 78.6709 5.03516 72.7198 5.03516 66.7289V22.243C5.03516 16.2521 6.52467 10.2761 10.9387 5.8697Z" fill="white"/>
<path fill-rule="evenodd" clip-rule="evenodd" d="M43.4635 21.1211C52.0785 13.2061 55.4151 4.44595 55.4151 0H71.1343C71.1343 10.2503 64.8114 22.9785 54.0368 32.8777C50.1406 36.4573 45.5891 39.7457 40.3951 42.5068C43.0901 43.5412 45.7754 44.6928 48.4025 45.9674C64.1103 53.5889 80.5658 67.1265 80.5658 88.9719H64.8466C64.8466 76.5631 55.6405 67.103 41.5998 60.2904C27.7866 53.5882 12.0312 50.9205 5.03516 50.9205V35.0327C22.4946 35.0327 35.1812 28.7305 43.4635 21.1211Z" fill="white"/>
<path fill-rule="evenodd" clip-rule="evenodd" d="M125.045 88.9719V0H140.99V88.9719H125.045Z" fill="white"/>
<path fill-rule="evenodd" clip-rule="evenodd" d="M243.377 209V120.028H259.322V209H243.377Z" fill="white"/>
<path fill-rule="evenodd" clip-rule="evenodd" d="M210.234 135.916H193.023V120.028H210.234C213.145 120.028 216.464 120.6 219.726 122.411C223.006 124.232 225.742 127.036 227.879 130.745C231.982 137.868 234.103 148.71 234.103 164.514C234.103 179.449 236.21 186.878 238.205 190.341C239.118 191.926 239.899 192.493 240.309 192.721C240.737 192.958 241.281 193.112 242.112 193.112H259.323V209H242.112C239.2 209 235.882 208.428 232.62 206.617C229.339 204.796 226.604 201.991 224.467 198.282C220.364 191.159 218.242 180.318 218.242 164.514C218.242 149.579 216.136 142.149 214.141 138.686C213.228 137.101 212.447 136.534 212.037 136.307C211.609 136.069 211.065 135.916 210.234 135.916Z" fill="white"/>
<path fill-rule="evenodd" clip-rule="evenodd" d="M193.023 209V120.028H208.969V209H193.023Z" fill="white"/>
<path d="M44.2448 209C36.9687 209 29.8049 207.196 23.388 203.747C16.971 200.299 11.499 195.312 7.4566 189.229C3.41422 183.146 0.926244 176.155 0.213062 168.874C-0.50012 161.594 0.583503 154.249 3.36795 147.49C6.15239 140.731 10.5517 134.767 16.1762 130.126C21.8007 125.485 28.4768 122.31 35.6131 120.883C42.7494 119.456 50.1256 119.82 57.0884 121.944C64.0512 124.067 70.3856 127.885 75.5306 133.058L64.4554 144.193C61.1318 140.852 57.0397 138.385 52.5418 137.014C48.0438 135.642 43.2788 135.406 38.6687 136.328C34.0587 137.25 29.7459 139.301 26.1125 142.299C22.4791 145.297 19.6371 149.15 17.8384 153.517C16.0396 157.883 15.3396 162.628 15.8003 167.331C16.261 172.034 17.8682 176.55 20.4796 180.48C23.091 184.409 26.6259 187.631 30.7713 189.859C34.9166 192.086 39.5444 193.252 44.2448 193.252V209Z" fill="white"/>
<path d="M75.5301 195.875C67.1834 204.279 55.8629 209 44.059 209C32.255 209 20.9345 204.279 12.5879 195.875L23.7287 184.659C29.1206 190.087 36.4336 193.137 44.059 193.137C51.6843 193.137 58.9974 190.087 64.3893 184.659L75.5301 195.875Z" fill="white"/>
<path d="M177.078 164.514C177.078 189.083 157.352 209 133.019 209C108.685 209 88.959 189.083 88.959 164.514C88.959 139.945 108.685 120.028 133.019 120.028C157.352 120.028 177.078 139.945 177.078 164.514ZM104.556 164.514C104.556 180.385 117.299 193.252 133.019 193.252C148.738 193.252 161.481 180.385 161.481 164.514C161.481 148.642 148.738 135.776 133.019 135.776C117.299 135.776 104.556 148.642 104.556 164.514Z" fill="white"/>
<path d="M216.94 0.000488281C241.274 0.000487217 261 19.9175 261 44.4864C261 69.0553 241.274 88.9724 216.94 88.9724C192.607 88.9724 172.881 69.0553 172.881 44.4864C172.881 19.9175 192.607 0.000489345 216.94 0.000488281ZM216.94 73.2243C232.66 73.2243 245.403 60.3579 245.403 44.4864C245.403 28.6149 232.66 15.7485 216.94 15.7485C201.221 15.7485 188.478 28.6149 188.478 44.4864C188.478 60.3579 201.221 73.2243 216.94 73.2243Z" fill="white"/>
</g>
<defs>
<clipPath id="clip0_702_344">
<rect width="261" height="209" fill="white"/>
</clipPath>
</defs>
</svg>
