<svg xmlns="http://www.w3.org/2000/svg" version="1.1" xmlns:xlink="http://www.w3.org/1999/xlink" xmlns:svgjs="http://svgjs.dev/svgjs" width="1000" height="194" viewBox="0 0 1000 194"><g transform="matrix(1,0,0,1,-0.6060574345590339,0.05130240011295939)"><svg viewBox="0 0 396 77" data-background-color="#000000" preserveAspectRatio="xMidYMid meet" height="194" width="1000" xmlns="http://www.w3.org/2000/svg" xmlns:xlink="http://www.w3.org/1999/xlink"><g id="tight-bounds" transform="matrix(1,0,0,1,0.23999874408536925,-0.020362292828338013)"><svg viewBox="0 0 395.52 77.04072458565668" height="77.04072458565668" width="395.52"><g><svg viewBox="0 0 484.70188767881046 94.41187458235017" height="77.04072458565668" width="395.52"><g transform="matrix(1,0,0,1,0,13.048240264275606)"><svg viewBox="0 0 395.52 68.31539405379895" height="68.31539405379895" width="395.52"><g id="textblocktransform"><svg viewBox="0 0 395.52 68.31539405379895" height="68.31539405379895" width="395.52" id="textblock"><g><svg viewBox="0 0 395.52 68.31539405379895" height="68.31539405379895" width="395.52"><g transform="matrix(1,0,0,1,0,0)"><svg width="395.52" viewBox="2.8499999046325684 -35.79999923706055 212.63999938964844 36.599998474121094" height="68.31539405379895" data-palette-color="#ffffff"><g class="wordmark-text-0" data-fill-palette-color="primary" id="text-0"><path d="M30.85-18.3Q33.95-17.15 35.65-14.95 37.35-12.75 37.35-9.65L37.35-9.65Q37.35-5.05 33.55-2.53 29.75 0 22.55 0L22.55 0 2.85 0 2.85-35 21.55-35Q28.55-35 32.13-32.5 35.7-30 35.7-25.85L35.7-25.85Q35.7-23.4 34.48-21.45 33.25-19.5 30.85-18.3L30.85-18.3ZM19.95-26.75L14.45-26.75 14.45-21.55 19.95-21.55Q23.8-21.55 23.8-24.15L23.8-24.15Q23.8-26.75 19.95-26.75L19.95-26.75ZM21.55-8.25Q25.45-8.25 25.45-11L25.45-11Q25.45-13.75 21.55-13.75L21.55-13.75 14.45-13.75 14.45-8.25 21.55-8.25ZM41.5 0L41.5-35 53.3-35 53.3 0 41.5 0ZM77.35 0.8Q71.7 0.8 67.2-1.55 62.7-3.9 60.15-8.08 57.6-12.25 57.6-17.5L57.6-17.5Q57.6-22.75 60.15-26.93 62.7-31.1 67.2-33.45 71.7-35.8 77.35-35.8L77.35-35.8Q83-35.8 87.5-33.45 92-31.1 94.55-26.93 97.1-22.75 97.1-17.5L97.1-17.5Q97.1-12.25 94.55-8.08 92-3.9 87.5-1.55 83 0.8 77.35 0.8L77.35 0.8ZM77.35-8.75Q79.55-8.75 81.32-9.83 83.1-10.9 84.15-12.88 85.2-14.85 85.2-17.5L85.2-17.5Q85.2-20.15 84.15-22.13 83.1-24.1 81.32-25.18 79.55-26.25 77.35-26.25L77.35-26.25Q75.15-26.25 73.37-25.18 71.6-24.1 70.55-22.13 69.5-20.15 69.5-17.5L69.5-17.5Q69.5-14.85 70.55-12.88 71.6-10.9 73.37-9.83 75.15-8.75 77.35-8.75L77.35-8.75ZM119.49 0.8Q113.94 0.8 109.49-1.53 105.04-3.85 102.52-8.03 99.99-12.2 99.99-17.5L99.99-17.5Q99.99-22.8 102.52-26.98 105.04-31.15 109.49-33.48 113.94-35.8 119.49-35.8L119.49-35.8Q124.59-35.8 128.59-34 132.59-32.2 135.19-28.8L135.19-28.8 127.74-22.15Q124.49-26.25 120.09-26.25L120.09-26.25Q116.39-26.25 114.14-23.88 111.89-21.5 111.89-17.5L111.89-17.5Q111.89-13.5 114.14-11.13 116.39-8.75 120.09-8.75L120.09-8.75Q124.49-8.75 127.74-12.85L127.74-12.85 135.19-6.2Q132.59-2.8 128.59-1 124.59 0.8 119.49 0.8L119.49 0.8ZM156.94 0.8Q151.29 0.8 146.79-1.55 142.29-3.9 139.74-8.08 137.19-12.25 137.19-17.5L137.19-17.5Q137.19-22.75 139.74-26.93 142.29-31.1 146.79-33.45 151.29-35.8 156.94-35.8L156.94-35.8Q162.59-35.8 167.09-33.45 171.59-31.1 174.14-26.93 176.69-22.75 176.69-17.5L176.69-17.5Q176.69-12.25 174.14-8.08 171.59-3.9 167.09-1.55 162.59 0.8 156.94 0.8L156.94 0.8ZM156.94-8.75Q159.14-8.75 160.92-9.83 162.69-10.9 163.74-12.88 164.79-14.85 164.79-17.5L164.79-17.5Q164.79-20.15 163.74-22.13 162.69-24.1 160.92-25.18 159.14-26.25 156.94-26.25L156.94-26.25Q154.74-26.25 152.97-25.18 151.19-24.1 150.14-22.13 149.09-20.15 149.09-17.5L149.09-17.5Q149.09-14.85 150.14-12.88 151.19-10.9 152.97-9.83 154.74-8.75 156.94-8.75L156.94-8.75ZM203.99-35L215.49-35 215.49 0 205.79 0 192.49-15.9 192.49 0 180.99 0 180.99-35 190.69-35 203.99-19.1 203.99-35Z" fill="#ffffff" data-fill-palette-color="primary"></path></g></svg></g></svg></g></svg></g></svg></g><g transform="matrix(1,0,0,1,411.6476249666446,0)"><svg viewBox="0 0 73.05426271216585 94.41187458235017" height="94.41187458235017" width="73.05426271216585"><g><svg xmlns="http://www.w3.org/2000/svg" xmlns:xlink="http://www.w3.org/1999/xlink" version="1.1" x="0" y="0" viewBox="12.982999801635742 1 75.68599700927734 97.81300354003906" enable-background="new 0 0 100 100" xml:space="preserve" height="94.41187458235017" width="73.05426271216585" class="icon-icon-0" data-fill-palette-color="accent" id="icon-0"><g fill="#ffffff" data-fill-palette-color="accent"><polygon fill-rule="evenodd" clip-rule="evenodd" points="12.983,10.59 30.001,98.813 24.129,39.764 53.15,37.872 53.096,27.989    64.549,1 53.622,18.977  " fill="#ffffff" data-fill-palette-color="accent"></polygon><polygon fill-rule="evenodd" clip-rule="evenodd" points="59.389,54.548 64.549,1.007 55.809,40.723 36.197,41.768 37.767,62.23    30.001,98.813 42.058,58.914  " fill="#ffffff" data-fill-palette-color="accent"></polygon><polygon fill-rule="evenodd" clip-rule="evenodd" points="62.8,67.182 63.349,56.729 47.37,60.484 47.338,72.281 30.001,98.813    51.681,71.197  " fill="#ffffff" data-fill-palette-color="accent"></polygon><polygon fill-rule="evenodd" clip-rule="evenodd" points="65.711,62.394 80.552,57.663 82.061,45.131 66.162,47.226  " fill="#ffffff" data-fill-palette-color="accent"></polygon><polygon fill-rule="evenodd" clip-rule="evenodd" points="72.07,44.502 83.058,43.085 84.639,32.807 76.56,32.434 64.549,1    72.979,31.967  " fill="#ffffff" data-fill-palette-color="accent"></polygon><polygon fill-rule="evenodd" clip-rule="evenodd" points="87.413,31.294 88.669,21.788 79.125,19.094 64.549,1 79.032,23.437    78.61,30.437  " fill="#ffffff" data-fill-palette-color="accent"></polygon></g></svg></g></svg></g></svg></g><defs></defs></svg><rect width="395.52" height="77.04072458565668" fill="none" stroke="none" visibility="hidden"></rect></g></svg></g></svg>