<svg width="77" height="94" viewBox="0 0 77 94" fill="none" xmlns="http://www.w3.org/2000/svg">
<path d="M6.86611 30.9316L6.82462 26.3887H13.2759C14.9215 26.3887 16.1385 26.0845 16.9267 25.476C17.715 24.8537 18.1091 23.9617 18.1091 22.8001C18.1091 21.4725 17.7219 20.5183 16.9475 19.9375C16.173 19.3567 14.9492 19.0663 13.2759 19.0663H9.12715V44H2.59294V13.7974H13.2759C16.8299 13.7974 19.6096 14.475 21.6148 15.8303C23.62 17.1855 24.6226 19.2737 24.6226 22.0948C24.6226 23.3256 24.3391 24.4803 23.7721 25.559C23.2189 26.6238 22.3339 27.4881 21.1169 28.1519C19.9 28.8157 18.3165 29.1684 16.3666 29.2099L14.5412 30.9316H6.86611ZM5.08217 44L7.61288 38.7519H14.2716C15.8342 38.7519 16.9751 38.3992 17.6942 37.694C18.4133 36.9749 18.7729 36.0829 18.7729 35.018C18.7729 34.1745 18.6277 33.4485 18.3373 32.84C18.0469 32.2315 17.5905 31.7613 16.9682 31.4294C16.3597 31.0975 15.5507 30.9316 14.5412 30.9316H8.48411L8.52559 26.3887H16.014L17.5283 28.1934C19.3952 28.1519 20.8957 28.4631 22.0296 29.1269C23.1636 29.7769 23.9864 30.6342 24.4981 31.6991C25.0098 32.7639 25.2656 33.891 25.2656 35.0803C25.2656 38.0259 24.3183 40.2523 22.4238 41.7597C20.5292 43.2532 17.8118 44 14.2716 44H5.08217ZM40.1354 44H33.622V13.7974H40.1354V44ZM74.1515 29.521C74.1515 32.6187 73.6053 35.2808 72.5128 37.5073C71.4203 39.7199 69.906 41.4278 67.9699 42.6309C66.0339 43.8202 63.7936 44.4149 61.249 44.4149C58.7045 44.4149 56.4503 43.8202 54.4866 42.6309C52.5367 41.4278 51.0086 39.7199 49.9023 37.5073C48.796 35.2808 48.2428 32.6187 48.2428 29.521V28.2971C48.2428 25.1994 48.7891 22.5443 49.8816 20.3316C50.9879 18.1052 52.516 16.3904 54.4659 15.1872C56.4158 13.9841 58.663 13.3825 61.2075 13.3825C63.7521 13.3825 65.9924 13.9841 67.9284 15.1872C69.8783 16.3904 71.3995 18.1052 72.492 20.3316C73.5983 22.5443 74.1515 25.1994 74.1515 28.2971V29.521ZM67.5758 28.2557C67.5758 26.1813 67.3269 24.4388 66.829 23.0283C66.3312 21.6177 65.6052 20.5529 64.651 19.8338C63.6968 19.1147 62.5489 18.7551 61.2075 18.7551C59.8385 18.7551 58.6837 19.1147 57.7434 19.8338C56.803 20.5529 56.0839 21.6177 55.586 23.0283C55.102 24.4388 54.86 26.1813 54.86 28.2557V29.521C54.86 31.5815 55.1089 33.324 55.6068 34.7484C56.1046 36.1589 56.8237 37.2307 57.7641 37.9636C58.7183 38.6966 59.8799 39.063 61.249 39.063C62.5904 39.063 63.7313 38.6966 64.6717 37.9636C65.6259 37.2307 66.345 36.1589 66.829 34.7484C67.3269 33.324 67.5758 31.5815 67.5758 29.521V28.2557Z" fill="white"/>
<path d="M23.2969 68.6042C23.1875 70.4028 22.6953 72.0009 21.8203 73.3984C20.9453 74.796 19.724 75.8898 18.1562 76.6797C16.6007 77.4696 14.7292 77.8646 12.5417 77.8646C10.2569 77.8646 8.28819 77.3481 6.63542 76.3151C4.98264 75.27 3.71267 73.7873 2.82552 71.8672C1.93837 69.947 1.49479 67.6745 1.49479 65.0495V63.4271C1.49479 60.7899 1.95052 58.5113 2.86198 56.5911C3.78559 54.671 5.07378 53.1884 6.72656 52.1432C8.37934 51.0981 10.3299 50.5755 12.5781 50.5755C14.8142 50.5755 16.6979 50.9887 18.2292 51.8151C19.7726 52.6293 20.9635 53.7474 21.8021 55.1693C22.6528 56.5911 23.1632 58.2135 23.3333 60.0365H17.6094C17.5 58.4809 17.0747 57.3021 16.3333 56.5C15.6042 55.6858 14.3524 55.2786 12.5781 55.2786C11.3993 55.2786 10.421 55.5642 9.64323 56.1354C8.86545 56.7066 8.28212 57.5938 7.89323 58.7969C7.50434 59.9878 7.3099 61.5191 7.3099 63.3906V65.0495C7.3099 66.8845 7.48003 68.4036 7.82031 69.6068C8.17274 70.8099 8.73177 71.7092 9.4974 72.3047C10.263 72.888 11.2778 73.1797 12.5417 73.1797C13.6476 73.1797 14.559 73.0156 15.276 72.6875C15.9931 72.3472 16.5399 71.8368 16.9167 71.1563C17.2934 70.4757 17.5182 69.625 17.5911 68.6042H23.2969ZM48.7266 64.776C48.7266 67.4983 48.2465 69.8377 47.2865 71.7943C46.3264 73.7387 44.9957 75.2396 43.2943 76.2969C41.5929 77.342 39.6241 77.8646 37.388 77.8646C35.1519 77.8646 33.171 77.342 31.4453 76.2969C29.7318 75.2396 28.3889 73.7387 27.4167 71.7943C26.4444 69.8377 25.9583 67.4983 25.9583 64.776V63.7005C25.9583 60.9783 26.4384 58.645 27.3984 56.7005C28.3707 54.7439 29.7135 53.237 31.4271 52.1797C33.1406 51.1224 35.1155 50.5938 37.3516 50.5938C39.5877 50.5938 41.5564 51.1224 43.2578 52.1797C44.9714 53.237 46.3082 54.7439 47.2682 56.7005C48.2404 58.645 48.7266 60.9783 48.7266 63.7005V64.776ZM42.9479 63.6641C42.9479 61.8411 42.7292 60.3099 42.2917 59.0703C41.8542 57.8307 41.2161 56.895 40.3776 56.263C39.5391 55.6311 38.5304 55.3151 37.3516 55.3151C36.1484 55.3151 35.1337 55.6311 34.3073 56.263C33.4809 56.895 32.849 57.8307 32.4115 59.0703C31.9861 60.3099 31.7734 61.8411 31.7734 63.6641V64.776C31.7734 66.5868 31.9922 68.1181 32.4297 69.3698C32.8672 70.6094 33.4991 71.5512 34.3255 72.1953C35.1641 72.8394 36.1849 73.1615 37.388 73.1615C38.5668 73.1615 39.5694 72.8394 40.3958 72.1953C41.2344 71.5512 41.8663 70.6094 42.2917 69.3698C42.7292 68.1181 42.9479 66.5868 42.9479 64.776V63.6641ZM74.3021 77.5H68.5781L58.2786 60.4193V77.5H52.5547V50.9583H58.2786L68.5964 68.0573V50.9583H74.3021V77.5Z" fill="white"/>
</svg>
