<svg width="345" height="138" viewBox="0 0 345 138" fill="none" xmlns="http://www.w3.org/2000/svg">
<circle cx="68.8" cy="11.76" r="11.76" fill="#5A60A1"/>
<circle cx="68.8" cy="40.28" r="11.76" fill="#5A60A1"/>
<circle cx="68.8" cy="97.32" r="11.76" fill="#5A60A1"/>
<circle cx="68.8" cy="125.84" r="11.76" fill="#5A60A1"/>
<circle cx="40.28" cy="125.84" r="11.76" fill="#5A60A1"/>
<circle cx="97.3201" cy="11.76" r="11.76" fill="#5A60A1"/>
<circle cx="11.76" cy="11.76" r="11.76" fill="#F4F0F5"/>
<circle cx="11.76" cy="68.8" r="11.76" fill="#F4F0F5"/>
<circle cx="11.76" cy="40.28" r="11.76" fill="#F4F0F5"/>
<circle cx="11.76" cy="97.32" r="11.76" fill="#F4F0F5"/>
<circle cx="11.76" cy="125.84" r="11.76" fill="#F4F0F5"/>
<circle cx="68.8" cy="68.8" r="11.76" fill="#F4F0F5"/>
<circle cx="40.28" cy="11.76" r="11.76" fill="#F4F0F5"/>
<circle cx="40.28" cy="68.8" r="11.76" fill="#F4F0F5"/>
<circle cx="40.28" cy="40.28" r="11.76" fill="#F4F0F5"/>
<circle cx="40.28" cy="97.32" r="11.76" fill="#F4F0F5"/>
<circle cx="97.3201" cy="68.8" r="11.76" fill="#F4F0F5"/>
<circle cx="97.3201" cy="40.28" r="11.76" fill="#F4F0F5"/>
<circle cx="97.3201" cy="97.32" r="11.76" fill="#F4F0F5"/>
<circle cx="97.3201" cy="125.84" r="11.76" fill="#F4F0F5"/>
<circle cx="125.84" cy="11.76" r="11.76" fill="#F4F0F5"/>
<circle cx="125.84" cy="68.8" r="11.76" fill="#F4F0F5"/>
<circle cx="125.84" cy="40.28" r="11.76" fill="#F4F0F5"/>
<circle cx="125.84" cy="97.32" r="11.76" fill="#F4F0F5"/>
<circle cx="125.84" cy="125.84" r="11.76" fill="#F4F0F5"/>
<path d="M158.06 23L167.66 2H169.85L179.45 23H177.11L168.29 3.29H169.19L160.37 23H158.06ZM161.84 17.39L162.5 15.59H174.71L175.37 17.39H161.84ZM188.597 23.15C187.097 23.15 185.747 22.81 184.547 22.13C183.367 21.45 182.437 20.51 181.757 19.31C181.077 18.09 180.737 16.69 180.737 15.11C180.737 13.51 181.077 12.11 181.757 10.91C182.437 9.71 183.367 8.78 184.547 8.12C185.747 7.44 187.097 7.1 188.597 7.1C189.977 7.1 191.207 7.41 192.287 8.03C193.387 8.65 194.257 9.56 194.897 10.76C195.557 11.94 195.887 13.39 195.887 15.11C195.887 16.81 195.567 18.26 194.927 19.46C194.287 20.66 193.417 21.58 192.317 22.22C191.237 22.84 189.997 23.15 188.597 23.15ZM188.747 21.26C189.867 21.26 190.867 21.01 191.747 20.51C192.647 19.99 193.347 19.27 193.847 18.35C194.367 17.41 194.627 16.33 194.627 15.11C194.627 13.87 194.367 12.79 193.847 11.87C193.347 10.95 192.647 10.24 191.747 9.74C190.867 9.22 189.867 8.96 188.747 8.96C187.647 8.96 186.657 9.22 185.777 9.74C184.897 10.24 184.197 10.95 183.677 11.87C183.157 12.79 182.897 13.87 182.897 15.11C182.897 16.33 183.157 17.41 183.677 18.35C184.197 19.27 184.897 19.99 185.777 20.51C186.657 21.01 187.647 21.26 188.747 21.26ZM194.687 23V18.26L194.897 15.08L194.597 11.9V0.739999H196.727V23H194.687ZM206.709 23L199.719 7.25H201.939L208.359 21.86H207.309L213.819 7.25H215.919L208.899 23H206.709ZM228.32 23V19.52L228.23 18.95V13.13C228.23 11.79 227.85 10.76 227.09 10.04C226.35 9.32 225.24 8.96 223.76 8.96C222.74 8.96 221.77 9.13 220.85 9.47C219.93 9.81 219.15 10.26 218.51 10.82L217.55 9.23C218.35 8.55 219.31 8.03 220.43 7.67C221.55 7.29 222.73 7.1 223.97 7.1C226.01 7.1 227.58 7.61 228.68 8.63C229.8 9.63 230.36 11.16 230.36 13.22V23H228.32ZM222.89 23.15C221.71 23.15 220.68 22.96 219.8 22.58C218.94 22.18 218.28 21.64 217.82 20.96C217.36 20.26 217.13 19.46 217.13 18.56C217.13 17.74 217.32 17 217.7 16.34C218.1 15.66 218.74 15.12 219.62 14.72C220.52 14.3 221.72 14.09 223.22 14.09H228.65V15.68H223.28C221.76 15.68 220.7 15.95 220.1 16.49C219.52 17.03 219.23 17.7 219.23 18.5C219.23 19.4 219.58 20.12 220.28 20.66C220.98 21.2 221.96 21.47 223.22 21.47C224.42 21.47 225.45 21.2 226.31 20.66C227.19 20.1 227.83 19.3 228.23 18.26L228.71 19.73C228.31 20.77 227.61 21.6 226.61 22.22C225.63 22.84 224.39 23.15 222.89 23.15ZM244.186 7.1C245.466 7.1 246.586 7.35 247.546 7.85C248.526 8.33 249.286 9.07 249.826 10.07C250.386 11.07 250.666 12.33 250.666 13.85V23H248.536V14.06C248.536 12.4 248.116 11.15 247.276 10.31C246.456 9.45 245.296 9.02 243.796 9.02C242.676 9.02 241.696 9.25 240.856 9.71C240.036 10.15 239.396 10.8 238.936 11.66C238.496 12.5 238.276 13.52 238.276 14.72V23H236.146V7.25H238.186V11.57L237.856 10.76C238.356 9.62 239.156 8.73 240.256 8.09C241.356 7.43 242.666 7.1 244.186 7.1ZM262.959 23.15C261.399 23.15 259.999 22.81 258.759 22.13C257.539 21.43 256.579 20.48 255.879 19.28C255.179 18.06 254.829 16.67 254.829 15.11C254.829 13.53 255.179 12.14 255.879 10.94C256.579 9.74 257.539 8.8 258.759 8.12C259.999 7.44 261.399 7.1 262.959 7.1C264.299 7.1 265.509 7.36 266.589 7.88C267.669 8.4 268.519 9.18 269.139 10.22L267.549 11.3C267.009 10.5 266.339 9.91 265.539 9.53C264.739 9.15 263.869 8.96 262.929 8.96C261.809 8.96 260.799 9.22 259.899 9.74C258.999 10.24 258.289 10.95 257.769 11.87C257.249 12.79 256.989 13.87 256.989 15.11C256.989 16.35 257.249 17.43 257.769 18.35C258.289 19.27 258.999 19.99 259.899 20.51C260.799 21.01 261.809 21.26 262.929 21.26C263.869 21.26 264.739 21.07 265.539 20.69C266.339 20.31 267.009 19.73 267.549 18.95L269.139 20.03C268.519 21.05 267.669 21.83 266.589 22.37C265.509 22.89 264.299 23.15 262.959 23.15ZM279.75 23.15C278.11 23.15 276.67 22.81 275.43 22.13C274.19 21.43 273.22 20.48 272.52 19.28C271.82 18.06 271.47 16.67 271.47 15.11C271.47 13.55 271.8 12.17 272.46 10.97C273.14 9.77 274.06 8.83 275.22 8.15C276.4 7.45 277.72 7.1 279.18 7.1C280.66 7.1 281.97 7.44 283.11 8.12C284.27 8.78 285.18 9.72 285.84 10.94C286.5 12.14 286.83 13.53 286.83 15.11C286.83 15.21 286.82 15.32 286.8 15.44C286.8 15.54 286.8 15.65 286.8 15.77H273.09V14.18H285.66L284.82 14.81C284.82 13.67 284.57 12.66 284.07 11.78C283.59 10.88 282.93 10.18 282.09 9.68C281.25 9.18 280.28 8.93 279.18 8.93C278.1 8.93 277.13 9.18 276.27 9.68C275.41 10.18 274.74 10.88 274.26 11.78C273.78 12.68 273.54 13.71 273.54 14.87V15.2C273.54 16.4 273.8 17.46 274.32 18.38C274.86 19.28 275.6 19.99 276.54 20.51C277.5 21.01 278.59 21.26 279.81 21.26C280.77 21.26 281.66 21.09 282.48 20.75C283.32 20.41 284.04 19.89 284.64 19.19L285.84 20.57C285.14 21.41 284.26 22.05 283.2 22.49C282.16 22.93 281.01 23.15 279.75 23.15ZM297.435 23.15C295.935 23.15 294.585 22.81 293.385 22.13C292.205 21.45 291.275 20.51 290.595 19.31C289.915 18.09 289.575 16.69 289.575 15.11C289.575 13.51 289.915 12.11 290.595 10.91C291.275 9.71 292.205 8.78 293.385 8.12C294.585 7.44 295.935 7.1 297.435 7.1C298.815 7.1 300.045 7.41 301.125 8.03C302.225 8.65 303.095 9.56 303.735 10.76C304.395 11.94 304.725 13.39 304.725 15.11C304.725 16.81 304.405 18.26 303.765 19.46C303.125 20.66 302.255 21.58 301.155 22.22C300.075 22.84 298.835 23.15 297.435 23.15ZM297.585 21.26C298.705 21.26 299.705 21.01 300.585 20.51C301.485 19.99 302.185 19.27 302.685 18.35C303.205 17.41 303.465 16.33 303.465 15.11C303.465 13.87 303.205 12.79 302.685 11.87C302.185 10.95 301.485 10.24 300.585 9.74C299.705 9.22 298.705 8.96 297.585 8.96C296.485 8.96 295.495 9.22 294.615 9.74C293.735 10.24 293.035 10.95 292.515 11.87C291.995 12.79 291.735 13.87 291.735 15.11C291.735 16.33 291.995 17.41 292.515 18.35C293.035 19.27 293.735 19.99 294.615 20.51C295.495 21.01 296.485 21.26 297.585 21.26ZM303.525 23V18.26L303.735 15.08L303.435 11.9V0.739999H305.565V23H303.525ZM163.4 48.39H174.5V50.28H163.4V48.39ZM163.64 58.08H176.27V60H161.42V39H175.82V40.92H163.64V58.08ZM189.078 44.1C190.358 44.1 191.478 44.35 192.438 44.85C193.418 45.33 194.178 46.07 194.718 47.07C195.278 48.07 195.558 49.33 195.558 50.85V60H193.428V51.06C193.428 49.4 193.008 48.15 192.168 47.31C191.348 46.45 190.188 46.02 188.688 46.02C187.568 46.02 186.588 46.25 185.748 46.71C184.928 47.15 184.288 47.8 183.828 48.66C183.388 49.5 183.168 50.52 183.168 51.72V60H181.038V44.25H183.078V48.57L182.748 47.76C183.248 46.62 184.048 45.73 185.148 45.09C186.248 44.43 187.558 44.1 189.078 44.1ZM208.032 65.97C206.592 65.97 205.212 65.76 203.892 65.34C202.572 64.92 201.502 64.32 200.682 63.54L201.762 61.92C202.502 62.58 203.412 63.1 204.492 63.48C205.592 63.88 206.752 64.08 207.972 64.08C209.972 64.08 211.442 63.61 212.382 62.67C213.322 61.75 213.792 60.31 213.792 58.35V54.42L214.092 51.72L213.882 49.02V44.25H215.922V58.08C215.922 60.8 215.252 62.79 213.912 64.05C212.592 65.33 210.632 65.97 208.032 65.97ZM207.642 59.4C206.142 59.4 204.792 59.08 203.592 58.44C202.392 57.78 201.442 56.87 200.742 55.71C200.062 54.55 199.722 53.22 199.722 51.72C199.722 50.22 200.062 48.9 200.742 47.76C201.442 46.6 202.392 45.7 203.592 45.06C204.792 44.42 206.142 44.1 207.642 44.1C209.042 44.1 210.302 44.39 211.422 44.97C212.542 45.55 213.432 46.41 214.092 47.55C214.752 48.69 215.082 50.08 215.082 51.72C215.082 53.36 214.752 54.75 214.092 55.89C213.432 57.03 212.542 57.9 211.422 58.5C210.302 59.1 209.042 59.4 207.642 59.4ZM207.852 57.51C209.012 57.51 210.042 57.27 210.942 56.79C211.842 56.29 212.552 55.61 213.072 54.75C213.592 53.87 213.852 52.86 213.852 51.72C213.852 50.58 213.592 49.58 213.072 48.72C212.552 47.86 211.842 47.19 210.942 46.71C210.042 46.21 209.012 45.96 207.852 45.96C206.712 45.96 205.682 46.21 204.762 46.71C203.862 47.19 203.152 47.86 202.632 48.72C202.132 49.58 201.882 50.58 201.882 51.72C201.882 52.86 202.132 53.87 202.632 54.75C203.152 55.61 203.862 56.29 204.762 56.79C205.682 57.27 206.712 57.51 207.852 57.51ZM221.849 60V44.25H223.979V60H221.849ZM222.929 40.77C222.489 40.77 222.119 40.62 221.819 40.32C221.519 40.02 221.369 39.66 221.369 39.24C221.369 38.82 221.519 38.47 221.819 38.19C222.119 37.89 222.489 37.74 222.929 37.74C223.369 37.74 223.739 37.88 224.039 38.16C224.339 38.44 224.489 38.79 224.489 39.21C224.489 39.65 224.339 40.02 224.039 40.32C223.759 40.62 223.389 40.77 222.929 40.77ZM237.946 44.1C239.226 44.1 240.346 44.35 241.306 44.85C242.286 45.33 243.046 46.07 243.586 47.07C244.146 48.07 244.426 49.33 244.426 50.85V60H242.296V51.06C242.296 49.4 241.876 48.15 241.036 47.31C240.216 46.45 239.056 46.02 237.556 46.02C236.436 46.02 235.456 46.25 234.616 46.71C233.796 47.15 233.156 47.8 232.696 48.66C232.256 49.5 232.036 50.52 232.036 51.72V60H229.906V44.25H231.946V48.57L231.616 47.76C232.116 46.62 232.916 45.73 234.016 45.09C235.116 44.43 236.426 44.1 237.946 44.1ZM256.869 60.15C255.229 60.15 253.789 59.81 252.549 59.13C251.309 58.43 250.339 57.48 249.639 56.28C248.939 55.06 248.589 53.67 248.589 52.11C248.589 50.55 248.919 49.17 249.579 47.97C250.259 46.77 251.179 45.83 252.339 45.15C253.519 44.45 254.839 44.1 256.299 44.1C257.779 44.1 259.089 44.44 260.229 45.12C261.389 45.78 262.299 46.72 262.959 47.94C263.619 49.14 263.949 50.53 263.949 52.11C263.949 52.21 263.939 52.32 263.919 52.44C263.919 52.54 263.919 52.65 263.919 52.77H250.209V51.18H262.779L261.939 51.81C261.939 50.67 261.689 49.66 261.189 48.78C260.709 47.88 260.049 47.18 259.209 46.68C258.369 46.18 257.399 45.93 256.299 45.93C255.219 45.93 254.249 46.18 253.389 46.68C252.529 47.18 251.859 47.88 251.379 48.78C250.899 49.68 250.659 50.71 250.659 51.87V52.2C250.659 53.4 250.919 54.46 251.439 55.38C251.979 56.28 252.719 56.99 253.659 57.51C254.619 58.01 255.709 58.26 256.929 58.26C257.889 58.26 258.779 58.09 259.599 57.75C260.439 57.41 261.159 56.89 261.759 56.19L262.959 57.57C262.259 58.41 261.379 59.05 260.319 59.49C259.279 59.93 258.129 60.15 256.869 60.15ZM274.974 60.15C273.334 60.15 271.894 59.81 270.654 59.13C269.414 58.43 268.444 57.48 267.744 56.28C267.044 55.06 266.694 53.67 266.694 52.11C266.694 50.55 267.024 49.17 267.684 47.97C268.364 46.77 269.284 45.83 270.444 45.15C271.624 44.45 272.944 44.1 274.404 44.1C275.884 44.1 277.194 44.44 278.334 45.12C279.494 45.78 280.404 46.72 281.064 47.94C281.724 49.14 282.054 50.53 282.054 52.11C282.054 52.21 282.044 52.32 282.024 52.44C282.024 52.54 282.024 52.65 282.024 52.77H268.314V51.18H280.884L280.044 51.81C280.044 50.67 279.794 49.66 279.294 48.78C278.814 47.88 278.154 47.18 277.314 46.68C276.474 46.18 275.504 45.93 274.404 45.93C273.324 45.93 272.354 46.18 271.494 46.68C270.634 47.18 269.964 47.88 269.484 48.78C269.004 49.68 268.764 50.71 268.764 51.87V52.2C268.764 53.4 269.024 54.46 269.544 55.38C270.084 56.28 270.824 56.99 271.764 57.51C272.724 58.01 273.814 58.26 275.034 58.26C275.994 58.26 276.884 58.09 277.704 57.75C278.544 57.41 279.264 56.89 279.864 56.19L281.064 57.57C280.364 58.41 279.484 59.05 278.424 59.49C277.384 59.93 276.234 60.15 274.974 60.15ZM286.39 60V44.25H288.43V48.54L288.22 47.79C288.66 46.59 289.4 45.68 290.44 45.06C291.48 44.42 292.77 44.1 294.31 44.1V46.17C294.23 46.17 294.15 46.17 294.07 46.17C293.99 46.15 293.91 46.14 293.83 46.14C292.17 46.14 290.87 46.65 289.93 47.67C288.99 48.67 288.52 50.1 288.52 51.96V60H286.39ZM298.197 60V44.25H300.327V60H298.197ZM299.277 40.77C298.837 40.77 298.467 40.62 298.167 40.32C297.867 40.02 297.717 39.66 297.717 39.24C297.717 38.82 297.867 38.47 298.167 38.19C298.467 37.89 298.837 37.74 299.277 37.74C299.717 37.74 300.087 37.88 300.387 38.16C300.687 38.44 300.837 38.79 300.837 39.21C300.837 39.65 300.687 40.02 300.387 40.32C300.107 40.62 299.737 40.77 299.277 40.77ZM314.293 44.1C315.573 44.1 316.693 44.35 317.653 44.85C318.633 45.33 319.393 46.07 319.933 47.07C320.493 48.07 320.773 49.33 320.773 50.85V60H318.643V51.06C318.643 49.4 318.223 48.15 317.383 47.31C316.563 46.45 315.403 46.02 313.903 46.02C312.783 46.02 311.803 46.25 310.963 46.71C310.143 47.15 309.503 47.8 309.043 48.66C308.603 49.5 308.383 50.52 308.383 51.72V60H306.253V44.25H308.293V48.57L307.963 47.76C308.463 46.62 309.263 45.73 310.363 45.09C311.463 44.43 312.773 44.1 314.293 44.1ZM333.247 65.97C331.807 65.97 330.427 65.76 329.107 65.34C327.787 64.92 326.717 64.32 325.897 63.54L326.977 61.92C327.717 62.58 328.627 63.1 329.707 63.48C330.807 63.88 331.967 64.08 333.187 64.08C335.187 64.08 336.657 63.61 337.597 62.67C338.537 61.75 339.007 60.31 339.007 58.35V54.42L339.307 51.72L339.097 49.02V44.25H341.137V58.08C341.137 60.8 340.467 62.79 339.127 64.05C337.807 65.33 335.847 65.97 333.247 65.97ZM332.857 59.4C331.357 59.4 330.007 59.08 328.807 58.44C327.607 57.78 326.657 56.87 325.957 55.71C325.277 54.55 324.937 53.22 324.937 51.72C324.937 50.22 325.277 48.9 325.957 47.76C326.657 46.6 327.607 45.7 328.807 45.06C330.007 44.42 331.357 44.1 332.857 44.1C334.257 44.1 335.517 44.39 336.637 44.97C337.757 45.55 338.647 46.41 339.307 47.55C339.967 48.69 340.297 50.08 340.297 51.72C340.297 53.36 339.967 54.75 339.307 55.89C338.647 57.03 337.757 57.9 336.637 58.5C335.517 59.1 334.257 59.4 332.857 59.4ZM333.067 57.51C334.227 57.51 335.257 57.27 336.157 56.79C337.057 56.29 337.767 55.61 338.287 54.75C338.807 53.87 339.067 52.86 339.067 51.72C339.067 50.58 338.807 49.58 338.287 48.72C337.767 47.86 337.057 47.19 336.157 46.71C335.257 46.21 334.227 45.96 333.067 45.96C331.927 45.96 330.897 46.21 329.977 46.71C329.077 47.19 328.367 47.86 327.847 48.72C327.347 49.58 327.097 50.58 327.097 51.72C327.097 52.86 327.347 53.87 327.847 54.75C328.367 55.61 329.077 56.29 329.977 56.79C330.897 57.27 331.927 57.51 333.067 57.51ZM167.21 97.18C165.65 97.18 164.15 96.93 162.71 96.43C161.29 95.91 160.19 95.25 159.41 94.45L160.28 92.74C161.02 93.46 162.01 94.07 163.25 94.57C164.51 95.05 165.83 95.29 167.21 95.29C168.53 95.29 169.6 95.13 170.42 94.81C171.26 94.47 171.87 94.02 172.25 93.46C172.65 92.9 172.85 92.28 172.85 91.6C172.85 90.78 172.61 90.12 172.13 89.62C171.67 89.12 171.06 88.73 170.3 88.45C169.54 88.15 168.7 87.89 167.78 87.67C166.86 87.45 165.94 87.22 165.02 86.98C164.1 86.72 163.25 86.38 162.47 85.96C161.71 85.54 161.09 84.99 160.61 84.31C160.15 83.61 159.92 82.7 159.92 81.58C159.92 80.54 160.19 79.59 160.73 78.73C161.29 77.85 162.14 77.15 163.28 76.63C164.42 76.09 165.88 75.82 167.66 75.82C168.84 75.82 170.01 75.99 171.17 76.33C172.33 76.65 173.33 77.1 174.17 77.68L173.42 79.45C172.52 78.85 171.56 78.41 170.54 78.13C169.54 77.85 168.57 77.71 167.63 77.71C166.37 77.71 165.33 77.88 164.51 78.22C163.69 78.56 163.08 79.02 162.68 79.6C162.3 80.16 162.11 80.8 162.11 81.52C162.11 82.34 162.34 83 162.8 83.5C163.28 84 163.9 84.39 164.66 84.67C165.44 84.95 166.29 85.2 167.21 85.42C168.13 85.64 169.04 85.88 169.94 86.14C170.86 86.4 171.7 86.74 172.46 87.16C173.24 87.56 173.86 88.1 174.32 88.78C174.8 89.46 175.04 90.35 175.04 91.45C175.04 92.47 174.76 93.42 174.2 94.3C173.64 95.16 172.78 95.86 171.62 96.4C170.48 96.92 169.01 97.18 167.21 97.18ZM185.967 97.15C184.407 97.15 183.007 96.81 181.767 96.13C180.547 95.43 179.587 94.48 178.887 93.28C178.187 92.06 177.837 90.67 177.837 89.11C177.837 87.53 178.187 86.14 178.887 84.94C179.587 83.74 180.547 82.8 181.767 82.12C183.007 81.44 184.407 81.1 185.967 81.1C187.307 81.1 188.517 81.36 189.597 81.88C190.677 82.4 191.527 83.18 192.147 84.22L190.557 85.3C190.017 84.5 189.347 83.91 188.547 83.53C187.747 83.15 186.877 82.96 185.937 82.96C184.817 82.96 183.807 83.22 182.907 83.74C182.007 84.24 181.297 84.95 180.777 85.87C180.257 86.79 179.997 87.87 179.997 89.11C179.997 90.35 180.257 91.43 180.777 92.35C181.297 93.27 182.007 93.99 182.907 94.51C183.807 95.01 184.817 95.26 185.937 95.26C186.877 95.26 187.747 95.07 188.547 94.69C189.347 94.31 190.017 93.73 190.557 92.95L192.147 94.03C191.527 95.05 190.677 95.83 189.597 96.37C188.517 96.89 187.307 97.15 185.967 97.15ZM204.137 81.1C205.417 81.1 206.537 81.35 207.497 81.85C208.477 82.33 209.237 83.07 209.777 84.07C210.337 85.07 210.617 86.33 210.617 87.85V97H208.487V88.06C208.487 86.4 208.067 85.15 207.227 84.31C206.407 83.45 205.247 83.02 203.747 83.02C202.627 83.02 201.647 83.25 200.807 83.71C199.987 84.15 199.347 84.8 198.887 85.66C198.447 86.5 198.227 87.52 198.227 88.72V97H196.097V74.74H198.227V85.57L197.807 84.76C198.307 83.62 199.107 82.73 200.207 82.09C201.307 81.43 202.617 81.1 204.137 81.1ZM222.79 97.15C221.27 97.15 219.9 96.81 218.68 96.13C217.48 95.43 216.53 94.48 215.83 93.28C215.13 92.06 214.78 90.67 214.78 89.11C214.78 87.53 215.13 86.14 215.83 84.94C216.53 83.74 217.48 82.8 218.68 82.12C219.88 81.44 221.25 81.1 222.79 81.1C224.35 81.1 225.73 81.44 226.93 82.12C228.15 82.8 229.1 83.74 229.78 84.94C230.48 86.14 230.83 87.53 230.83 89.11C230.83 90.67 230.48 92.06 229.78 93.28C229.1 94.48 228.15 95.43 226.93 96.13C225.71 96.81 224.33 97.15 222.79 97.15ZM222.79 95.26C223.93 95.26 224.94 95.01 225.82 94.51C226.7 93.99 227.39 93.27 227.89 92.35C228.41 91.41 228.67 90.33 228.67 89.11C228.67 87.87 228.41 86.79 227.89 85.87C227.39 84.95 226.7 84.24 225.82 83.74C224.94 83.22 223.94 82.96 222.82 82.96C221.7 82.96 220.7 83.22 219.82 83.74C218.94 84.24 218.24 84.95 217.72 85.87C217.2 86.79 216.94 87.87 216.94 89.11C216.94 90.33 217.2 91.41 217.72 92.35C218.24 93.27 218.94 93.99 219.82 94.51C220.7 95.01 221.69 95.26 222.79 95.26ZM241.599 97.15C240.079 97.15 238.709 96.81 237.489 96.13C236.289 95.43 235.339 94.48 234.639 93.28C233.939 92.06 233.589 90.67 233.589 89.11C233.589 87.53 233.939 86.14 234.639 84.94C235.339 83.74 236.289 82.8 237.489 82.12C238.689 81.44 240.059 81.1 241.599 81.1C243.159 81.1 244.539 81.44 245.739 82.12C246.959 82.8 247.909 83.74 248.589 84.94C249.289 86.14 249.639 87.53 249.639 89.11C249.639 90.67 249.289 92.06 248.589 93.28C247.909 94.48 246.959 95.43 245.739 96.13C244.519 96.81 243.139 97.15 241.599 97.15ZM241.599 95.26C242.739 95.26 243.749 95.01 244.629 94.51C245.509 93.99 246.199 93.27 246.699 92.35C247.219 91.41 247.479 90.33 247.479 89.11C247.479 87.87 247.219 86.79 246.699 85.87C246.199 84.95 245.509 84.24 244.629 83.74C243.749 83.22 242.749 82.96 241.629 82.96C240.509 82.96 239.509 83.22 238.629 83.74C237.749 84.24 237.049 84.95 236.529 85.87C236.009 86.79 235.749 87.87 235.749 89.11C235.749 90.33 236.009 91.41 236.529 92.35C237.049 93.27 237.749 93.99 238.629 94.51C239.509 95.01 240.499 95.26 241.599 95.26ZM253.988 97V74.74H256.118V97H253.988ZM161.42 134V113H163.64V134H161.42ZM174.553 134V114.92H167.173V113H184.153V114.92H176.773V134H174.553ZM187.699 134V113H189.529L199.129 129.38H198.169L207.679 113H209.509V134H207.379V116.33H207.889L199.129 131.33H198.079L189.259 116.33H189.829V134H187.699ZM225.532 134.18C223.952 134.18 222.482 133.92 221.122 133.4C219.782 132.86 218.612 132.11 217.612 131.15C216.632 130.17 215.862 129.04 215.302 127.76C214.762 126.46 214.492 125.04 214.492 123.5C214.492 121.96 214.762 120.55 215.302 119.27C215.862 117.97 216.632 116.84 217.612 115.88C218.612 114.9 219.782 114.15 221.122 113.63C222.462 113.09 223.932 112.82 225.532 112.82C227.112 112.82 228.572 113.09 229.912 113.63C231.252 114.15 232.412 114.89 233.392 115.85C234.392 116.81 235.162 117.94 235.702 119.24C236.262 120.54 236.542 121.96 236.542 123.5C236.542 125.04 236.262 126.46 235.702 127.76C235.162 129.06 234.392 130.19 233.392 131.15C232.412 132.11 231.252 132.86 229.912 133.4C228.572 133.92 227.112 134.18 225.532 134.18ZM225.532 132.2C226.792 132.2 227.952 131.99 229.012 131.57C230.092 131.13 231.022 130.52 231.802 129.74C232.602 128.94 233.222 128.02 233.662 126.98C234.102 125.92 234.322 124.76 234.322 123.5C234.322 122.24 234.102 121.09 233.662 120.05C233.222 118.99 232.602 118.07 231.802 117.29C231.022 116.49 230.092 115.88 229.012 115.46C227.952 115.02 226.792 114.8 225.532 114.8C224.272 114.8 223.102 115.02 222.022 115.46C220.942 115.88 220.002 116.49 219.202 117.29C218.422 118.07 217.802 118.99 217.342 120.05C216.902 121.09 216.682 122.24 216.682 123.5C216.682 124.74 216.902 125.89 217.342 126.95C217.802 128.01 218.422 128.94 219.202 129.74C220.002 130.52 220.942 131.13 222.022 131.57C223.102 131.99 224.272 132.2 225.532 132.2Z" fill="white"/>
</svg>
