<svg width="288" height="179" viewBox="0 0 288 179" fill="none" xmlns="http://www.w3.org/2000/svg">
<path fill-rule="evenodd" clip-rule="evenodd" d="M105.287 0.00632123C101.924 -0.0710771 96.8657 0.542651 92.3702 2.93671C87.4756 5.5433 83.0508 10.4751 83.0508 18.2434V80.2012H96.2823V18.2434C96.2823 17.0666 96.5753 16.4119 96.8568 15.9953C97.1758 15.5232 97.7199 15.0159 98.6157 14.5388C100.55 13.5087 103.206 13.1147 105.022 13.1643L105.113 13.1667H137.972V0.00632123H105.287Z" fill="#FE6F61"/>
<path fill-rule="evenodd" clip-rule="evenodd" d="M117.347 21.6174C126.069 13.9086 130.102 5.23278 130.102 0H143.33C143.33 10.6122 136.284 22.6511 126.05 31.6958C115.536 40.9883 100.616 48.1207 83.0508 48.1207V34.7382C96.9931 34.7382 108.905 29.0784 117.347 21.6174Z" fill="white"/>
<path fill-rule="evenodd" clip-rule="evenodd" d="M170.924 98.8047C167.561 98.7273 162.503 99.341 158.008 101.735C153.113 104.342 148.688 109.273 148.688 117.042V179H161.92V117.042C161.92 115.865 162.213 115.21 162.494 114.794C162.814 114.322 163.358 113.814 164.253 113.337C166.188 112.307 168.843 111.913 170.66 111.963L170.751 111.965H203.609V98.8047H170.924Z" fill="#6A25BA"/>
<path fill-rule="evenodd" clip-rule="evenodd" d="M184.549 118.407C192.461 111.146 195.577 103.029 195.577 98.7983H208.738C208.738 107.651 203.254 119.002 193.5 127.954C189.464 131.658 184.629 135.023 179 137.723C181.459 138.698 183.905 139.794 186.289 141.017C199.753 147.924 212.986 160.192 212.986 179H199.825C199.825 167.312 191.817 158.52 180.231 152.577C168.668 146.645 155.282 144.269 148.688 144.269V131.248C165.133 131.248 176.91 125.418 184.549 118.407Z" fill="white"/>
<path fill-rule="evenodd" clip-rule="evenodd" d="M282.642 50.7936H237.098V37.4268H282.642V50.7936Z" fill="#6CCD86"/>
<path fill-rule="evenodd" clip-rule="evenodd" d="M259.118 13.1604C256.482 13.1604 253.378 14.5173 250.837 18.2526C249.807 19.7676 248.574 23.0509 247.453 28.2671C246.38 33.2561 245.555 39.2763 244.937 45.6396C243.702 58.3528 243.343 71.905 243.343 80.2012H230.4C230.4 71.6247 230.768 57.6174 232.057 44.3461C232.701 37.7172 233.587 31.139 234.809 25.456C235.982 20.0002 237.628 14.5379 240.193 10.7666C244.843 3.92927 251.72 -5.15412e-05 259.119 5.07057e-10C266.503 5.15422e-05 273.405 3.91244 278.156 10.6911C280.814 14.4839 282.495 19.9775 283.681 25.4442C284.917 31.1398 285.797 37.7281 286.427 44.3601C287.689 57.6392 288 71.6478 288 80.2012H275.058C275.058 71.8819 274.752 58.3311 273.545 45.6259C272.94 39.2657 272.122 33.2556 271.043 28.2792C269.913 23.074 268.662 19.822 267.616 18.3285C264.957 14.5344 261.769 13.1604 259.118 13.1604Z" fill="white"/>
<path fill-rule="evenodd" clip-rule="evenodd" d="M13.3953 98.7983L13.3953 179L0 179L-3.51317e-06 98.7983L13.3953 98.7983Z" fill="#FE6F61"/>
<path fill-rule="evenodd" clip-rule="evenodd" d="M35.1137 118.407C42.861 111.146 45.9114 103.029 45.9114 98.7983H58.7984C58.7984 107.651 53.429 119.002 43.8776 127.954C39.9258 131.658 35.192 135.023 29.6801 137.723C32.0881 138.698 34.4831 139.794 36.8173 141.017C50.001 147.924 62.9581 160.192 62.9581 179H50.0711C50.0711 167.312 42.2297 158.52 30.8854 152.577C19.5637 146.645 6.45591 144.269 0 144.269V131.248C16.1024 131.248 27.6338 125.418 35.1137 118.407Z" fill="white"/>
<path fill-rule="evenodd" clip-rule="evenodd" d="M84.398 104.089C88.3947 100.133 93.8009 98.7983 99.2514 98.7983H131.395V113.12H99.2514C95.9246 113.12 94.7968 113.934 94.4538 114.274C94.1261 114.598 93.3346 115.656 93.3346 118.849V158.949C93.3346 162.142 94.1268 163.222 94.4583 163.554C94.789 163.886 95.8644 164.678 99.0462 164.678H133.953C133.953 164.678 133.953 164.678 133.953 171.839C133.953 179 133.953 179 133.953 179H99.0462C93.6559 179 88.2999 177.644 84.3422 173.678C80.3853 169.714 79.0322 164.35 79.0322 158.949V118.849C79.0322 113.448 80.3861 108.061 84.398 104.089Z" fill="#6CCD86"/>
<path fill-rule="evenodd" clip-rule="evenodd" d="M79.032 132.215L124.576 132.215L124.576 145.582L79.032 145.582L79.032 132.215Z" fill="white"/>
<path fill-rule="evenodd" clip-rule="evenodd" d="M159.412 5.29108C163.408 1.33416 168.815 0 174.265 0H206.409V14.3216H174.265C170.938 14.3216 169.81 15.1357 169.467 15.4753C169.14 15.7998 168.348 16.8576 168.348 20.0503V60.1509C168.348 63.3436 169.141 64.4239 169.472 64.7559C169.803 65.0873 170.878 65.8796 174.06 65.8796H208.967C208.967 65.8796 208.967 65.8796 208.967 73.0404C208.967 80.2012 208.967 80.2012 208.967 80.2012H174.06C168.67 80.2012 163.314 78.8453 159.356 74.8801C155.399 70.9157 154.046 65.5512 154.046 60.1509V20.0503C154.046 14.65 155.4 9.26312 159.412 5.29108Z" fill="#6CCD86"/>
<path fill-rule="evenodd" clip-rule="evenodd" d="M154.047 33.4173L199.591 33.4173L199.591 46.7842L154.047 46.7842L154.047 33.4173Z" fill="white"/>
<path d="M61.6192 28.0704C61.6192 21.6105 59.3467 15.3482 55.1851 10.3401C51.0234 5.3319 45.2274 1.88438 38.7747 0.57906C32.322 -0.726256 25.6076 0.19053 19.7642 3.17476C13.9208 6.15899 9.30594 11.028 6.69824 16.9605L19.847 22.5167C21.1505 19.5511 23.4574 17.1172 26.3785 15.6254C29.2995 14.1336 32.656 13.6753 35.8816 14.3278C39.1072 14.9804 42.0046 16.7037 44.0849 19.2072C46.1653 21.7108 47.3012 24.8412 47.3012 28.0704H61.6192Z" fill="#6CCD86"/>
<path d="M0.000239439 46.784C0.000238809 53.9789 2.28116 60.9816 6.50383 66.751C10.7265 72.5203 16.6654 76.7481 23.4374 78.8056C30.2094 80.8631 37.4529 80.6406 44.0907 78.171C50.7285 75.7014 56.4061 71.1167 60.2793 65.0986L48.3407 57.1347C46.1517 60.5359 42.943 63.127 39.1915 64.5227C35.4401 65.9184 31.3464 66.0442 27.5191 64.8814C23.6918 63.7185 20.3354 61.3292 17.9489 58.0686C15.5624 54.808 14.2733 50.8503 14.2733 46.784L0.000239439 46.784Z" fill="#6CCD86"/>
<path fill-rule="evenodd" clip-rule="evenodd" d="M4.01863 0.530607C4.01866 0.35221 4.0187 0.175322 4.0187 0L17.9992 3.86122e-05C17.9992 8.15137 18.0639 16.1674 19.9118 22.1644C20.7948 25.0298 21.9201 26.831 23.1342 27.9079C24.2189 28.8701 25.8847 29.7175 28.904 29.7175C36.6725 29.7175 43.0727 31.9017 48.087 35.9263C53.0184 39.8844 56.0661 45.1847 57.9751 50.5146C61.622 60.697 61.6198 72.5796 61.6185 79.794C61.6185 79.9314 61.6184 80.0672 61.6184 80.2012L47.6379 80.2012C47.6379 72.5465 47.5648 63.027 44.8501 55.4477C43.5436 51.7998 41.7681 49.0486 39.4645 47.1998C37.2439 45.4174 33.9975 44.0391 28.904 44.0391C22.9758 44.0391 17.9309 42.237 13.9827 38.7348C10.1637 35.3474 7.93375 30.8695 6.57979 26.4755C4.01509 18.1524 4.01713 8.01517 4.01863 0.530607Z" fill="white"/>
<path d="M286.484 126.869C286.484 120.409 284.267 114.147 280.207 109.138C276.146 104.13 270.492 100.683 264.196 99.3774C257.901 98.0721 251.351 98.9889 245.65 101.973C239.949 104.957 235.446 109.826 232.902 115.759L245.73 121.315C247.002 118.349 249.253 115.916 252.103 114.424C254.952 112.932 258.227 112.474 261.374 113.126C264.521 113.779 267.348 115.502 269.377 118.006C271.407 120.509 272.515 123.64 272.515 126.869H286.484Z" fill="#6CCD86"/>
<path d="M226.204 145.582C226.204 152.777 228.485 159.78 232.708 165.549C236.931 171.319 242.869 175.546 249.641 177.604C256.414 179.661 263.657 179.439 270.295 176.969C276.933 174.5 282.61 169.915 286.483 163.897L274.545 155.933C272.356 159.334 269.147 161.925 265.396 163.321C261.644 164.717 257.55 164.843 253.723 163.68C249.896 162.517 246.539 160.128 244.153 156.867C241.767 153.606 240.477 149.649 240.477 145.582L226.204 145.582Z" fill="#6CCD86"/>
<path fill-rule="evenodd" clip-rule="evenodd" d="M228.884 99.3289C228.884 99.1506 228.884 98.9737 228.884 98.7983L243.19 98.7984C243.19 106.95 243.256 114.966 245.147 120.963C246.05 123.828 247.202 125.629 248.444 126.706C249.554 127.668 251.258 128.516 254.348 128.516C262.297 128.516 268.846 130.7 273.977 134.725C279.023 138.683 282.142 143.983 284.095 149.313C287.827 159.495 287.825 171.378 287.823 178.592C287.823 178.73 287.823 178.866 287.823 179L273.518 179C273.518 171.345 273.443 161.825 270.665 154.246C269.328 150.598 267.511 147.847 265.154 145.998C262.882 144.216 259.56 142.837 254.348 142.837C248.282 142.837 243.12 141.035 239.08 137.533C235.172 134.146 232.89 129.668 231.505 125.274C228.88 116.951 228.882 106.814 228.884 99.3289Z" fill="#6A25BA"/>
</svg>
