<svg width="1030" height="138" viewBox="0 0 1030 138" fill="none" xmlns="http://www.w3.org/2000/svg">
<path fill-rule="evenodd" clip-rule="evenodd" d="M181.114 0.0108768C175.328 -0.1223 166.628 0.933724 158.895 5.05311C150.475 9.53821 142.864 18.0242 142.864 31.3908V138H165.624V31.3908C165.624 29.3661 166.128 28.2395 166.613 27.5227C167.161 26.7103 168.097 25.8374 169.638 25.0165C172.966 23.2441 177.534 22.5661 180.659 22.6514L180.815 22.6557H237.338V0.0108768H181.114Z" fill="#FE6F61"/>
<path fill-rule="evenodd" clip-rule="evenodd" d="M201.86 37.1964C216.864 23.9321 223.801 9.00389 223.801 0H246.555C246.555 18.2601 234.434 38.9751 216.83 54.5381C198.744 70.5274 173.079 82.8 142.864 82.8V59.773C166.847 59.773 187.339 50.0344 201.86 37.1964Z" fill="white"/>
<path fill-rule="evenodd" clip-rule="evenodd" d="M830.912 0.0108768C825.127 -0.1223 816.426 0.933724 808.693 5.05311C800.274 9.53821 792.662 18.0242 792.662 31.3908V138H815.423V31.3908C815.423 29.3661 815.927 28.2395 816.411 27.5227C816.96 26.7103 817.896 25.8374 819.437 25.0165C822.764 23.2441 827.332 22.5661 830.457 22.6514L830.613 22.6557H887.136V0.0108768H830.912Z" fill="#6A25BA"/>
<path fill-rule="evenodd" clip-rule="evenodd" d="M854.349 33.7405C867.96 21.2464 873.319 7.27975 873.319 0H895.958C895.958 15.2331 886.525 34.7641 869.746 50.1677C862.803 56.5409 854.487 62.3314 844.804 66.976C849.034 68.6544 853.242 70.5399 857.342 72.6442C880.503 84.5289 903.266 105.638 903.266 138H880.626C880.626 117.889 866.851 102.762 846.921 92.5354C827.031 82.3292 804.004 78.2407 792.662 78.2407V55.8347C820.951 55.8347 841.209 45.8035 854.349 33.7405Z" fill="white"/>
<path fill-rule="evenodd" clip-rule="evenodd" d="M486.197 87.3999H407.853V64.3999H486.197V87.3999Z" fill="#6CCD86"/>
<path fill-rule="evenodd" clip-rule="evenodd" d="M445.732 22.6448C441.196 22.6447 435.857 24.9796 431.487 31.4067C429.714 34.0136 427.594 39.663 425.664 48.6384C423.819 57.2228 422.399 67.5817 421.336 78.5308C419.212 100.406 418.595 123.725 418.595 138H396.331C396.331 123.243 396.963 99.1406 399.18 76.3051C400.288 64.8989 401.812 53.58 403.914 43.8014C405.932 34.4137 408.763 25.015 413.176 18.5259C421.175 6.76098 433.005 -8.86855e-05 445.732 8.72478e-10C458.434 8.86873e-05 470.308 6.73202 478.479 18.3959C483.052 24.9221 485.944 34.3747 487.984 43.7811C490.11 53.5814 491.624 64.9177 492.708 76.3292C494.878 99.1782 495.414 123.282 495.414 138H473.15C473.15 123.685 472.624 100.369 470.547 78.5072C469.508 67.5634 468.101 57.222 466.243 48.6593C464.301 39.7027 462.149 34.1072 460.348 31.5373C455.774 25.009 450.291 22.6448 445.732 22.6448Z" fill="white"/>
<path fill-rule="evenodd" clip-rule="evenodd" d="M559.933 -1.00536e-06L559.933 138L536.891 138L536.891 0L559.933 -1.00536e-06Z" fill="#FE6F61"/>
<path fill-rule="evenodd" clip-rule="evenodd" d="M597.293 33.7405C610.62 21.2464 615.867 7.27975 615.867 0H638.035C638.035 15.2331 628.799 34.7641 612.368 50.1677C605.57 56.5409 597.427 62.3314 587.946 66.976C592.088 68.6544 596.208 70.5399 600.223 72.6442C622.902 84.5289 645.19 105.638 645.19 138H623.022C623.022 117.889 609.534 102.762 590.019 92.5354C570.544 82.3292 547.996 78.2407 536.891 78.2407V55.8347C564.59 55.8347 584.426 45.8035 597.293 33.7405Z" fill="white"/>
<path fill-rule="evenodd" clip-rule="evenodd" d="M682.071 9.10421C688.946 2.29566 698.246 0 707.622 0H762.915V24.6429H707.622C701.899 24.6429 699.959 26.0436 699.369 26.6279C698.805 27.1862 697.444 29.0065 697.444 34.5V103.5C697.444 108.994 698.806 110.852 699.376 111.424C699.945 111.994 701.795 113.357 707.269 113.357H767.315C767.315 113.357 767.315 113.357 767.315 125.679C767.315 138 767.315 138 767.315 138H707.269C697.996 138 688.783 135.667 681.975 128.844C675.168 122.023 672.841 112.792 672.841 103.5V34.5C672.841 25.2078 675.17 15.9388 682.071 9.10421Z" fill="#FE6F61"/>
<path fill-rule="evenodd" clip-rule="evenodd" d="M672.841 57.5L751.186 57.5L751.186 80.5L672.841 80.5L672.841 57.5Z" fill="white"/>
<path fill-rule="evenodd" clip-rule="evenodd" d="M274.219 9.10421C281.094 2.29566 290.394 0 299.77 0H355.064V24.6429H299.77C294.047 24.6429 292.107 26.0436 291.517 26.6279C290.953 27.1862 289.592 29.0065 289.592 34.5V103.5C289.592 108.994 290.955 110.852 291.525 111.424C292.094 111.994 293.944 113.357 299.417 113.357H359.463C359.463 113.357 359.464 113.357 359.464 125.679C359.464 138 359.463 138 359.463 138H299.417C290.145 138 280.931 135.667 274.123 128.844C267.317 122.023 264.989 112.792 264.989 103.5V34.5C264.989 25.2078 267.318 15.9388 274.219 9.10421Z" fill="#6CCD86"/>
<path fill-rule="evenodd" clip-rule="evenodd" d="M264.989 57.5L343.334 57.5L343.334 80.5L264.989 80.5L264.989 57.5Z" fill="white"/>
<path d="M105.996 48.3C105.996 37.1845 102.087 26.4092 94.9279 17.7919C87.7691 9.17446 77.7989 3.24239 66.699 0.996373C55.5992 -1.24965 44.0492 0.32784 33.9974 5.46272C23.9456 10.5976 16.0072 18.9756 11.5215 29.1834L34.1398 38.7439C36.3821 33.6411 40.3504 29.4531 45.3752 26.8862C50.3999 24.3193 56.1737 23.5308 61.7223 24.6535C67.271 25.7763 72.255 28.7416 75.8336 33.0494C79.4121 37.3571 81.3662 42.7435 81.3662 48.3H105.996Z" fill="#6CCD86"/>
<path d="M0.000127106 80.5C0.000126022 92.88 3.92373 104.929 11.1875 114.857C18.4513 124.784 28.6673 132.058 40.3164 135.599C51.9656 139.139 64.4256 138.756 75.8439 134.507C87.2622 130.257 97.0288 122.369 103.691 112.013L83.1548 98.3101C79.3894 104.162 73.8697 108.621 67.4165 111.023C60.9633 113.424 53.9214 113.641 47.3377 111.64C40.7541 109.639 34.9804 105.527 30.8752 99.917C26.77 94.3066 24.5525 87.4967 24.5525 80.5L0.000127106 80.5Z" fill="#6CCD86"/>
<path fill-rule="evenodd" clip-rule="evenodd" d="M6.91272 0.913C6.91279 0.606039 6.91285 0.301671 6.91285 0L30.9619 6.64389e-05C30.9619 14.0258 31.0732 27.8188 34.252 38.1377C35.7708 43.068 37.7067 46.1674 39.7951 48.0204C41.6609 49.6759 44.5265 51.134 49.7202 51.134C63.0835 51.134 74.0931 54.8924 82.7186 61.8174C91.2014 68.6279 96.4442 77.748 99.728 86.9191C106.001 104.44 105.998 124.886 105.995 137.299C105.995 137.536 105.995 137.769 105.995 138L81.9461 138C81.9461 124.829 81.8203 108.449 77.1506 95.4073C74.9031 89.1304 71.8489 84.3966 67.8863 81.2153C64.0664 78.1484 58.482 75.7769 49.7202 75.7769C39.5226 75.7769 30.8445 72.6761 24.0527 66.65C17.4834 60.8213 13.6475 53.1163 11.3184 45.5557C6.90664 31.2343 6.91014 13.7915 6.91272 0.913Z" fill="white"/>
<path d="M1027.7 48.3C1027.7 37.1845 1023.88 26.4092 1016.9 17.7919C1009.91 9.17446 1000.19 3.24239 989.358 0.996373C978.529 -1.24965 967.261 0.32784 957.454 5.46272C947.647 10.5976 939.903 18.9756 935.526 29.1834L957.593 38.7439C959.781 33.6411 963.652 29.4531 968.554 26.8862C973.457 24.3193 979.089 23.5308 984.503 24.6535C989.916 25.7763 994.779 28.7416 998.27 33.0494C1001.76 37.3571 1003.67 42.7435 1003.67 48.3H1027.7Z" fill="#6CCD86"/>
<path d="M924.004 80.5C924.004 92.88 927.928 104.929 935.191 114.857C942.455 124.784 952.671 132.058 964.32 135.599C975.969 139.139 988.43 138.756 999.848 134.507C1011.27 130.257 1021.03 122.369 1027.7 112.013L1007.16 98.3101C1003.39 104.162 997.874 108.621 991.42 111.023C984.967 113.424 977.925 113.641 971.342 111.64C964.758 109.639 958.984 105.527 954.879 99.917C950.774 94.3066 948.556 87.4967 948.556 80.5L924.004 80.5Z" fill="#6CCD86"/>
<path fill-rule="evenodd" clip-rule="evenodd" d="M928.613 0.913C928.613 0.606039 928.614 0.301671 928.614 0L953.222 6.62381e-05C953.222 14.0258 953.336 27.8188 956.589 38.1377C958.143 43.068 960.123 46.1674 962.26 48.0204C964.17 49.6759 967.102 51.134 972.416 51.134C986.091 51.134 997.356 54.8924 1006.18 61.8174C1014.86 68.6279 1020.23 77.748 1023.59 86.9191C1030.01 104.44 1030 124.886 1030 137.299C1030 137.536 1030 137.769 1030 138L1005.39 138C1005.39 124.829 1005.26 108.449 1000.48 95.4073C998.185 89.1304 995.06 84.3966 991.005 81.2153C987.096 78.1484 981.382 75.7769 972.416 75.7769C961.982 75.7769 953.102 72.6761 946.152 66.65C939.43 60.8213 935.505 53.1163 933.122 45.5557C928.607 31.2343 928.611 13.7915 928.613 0.913Z" fill="#6A25BA"/>
</svg>
